<mxfile host="Electron" agent="Mozilla/5.0 (Windows NT 10.0; Win64; x64) AppleWebKit/537.36 (KHTML, like Gecko) draw.io/26.0.4 Chrome/128.0.6613.186 Electron/32.2.5 Safari/537.36" version="26.0.4">
  <diagram name="Page-1" id="sFlKuk71NM78yHXNFix0">
    <mxGraphModel dx="1290" dy="621" grid="0" gridSize="10" guides="1" tooltips="1" connect="1" arrows="1" fold="1" page="1" pageScale="1" pageWidth="1169" pageHeight="827" math="0" shadow="0">
      <root>
        <mxCell id="0" />
        <mxCell id="1" parent="0" />
        <mxCell id="XY3Dx2JAYwhzfvwpX6yY-7" value="" style="shape=image;aspect=fixed;image=data:image/png,iVBORw0KGgoAAAANSUhEUgAAATYAAACjCAMAAAA3vsLfAAABCFBMVEX///8AMYniARw3PELhAAD0t7kAHYO3vdQmLDQhKDA0OT+6u70uMzooLjUrMTgwNjwALojS09Tb3N0AJoWFh4oAKYYALIcbIys9QkiusLFESU8AIIMAG4J/f38AF4EZISr29vaWmJrk5OXt7e5aXmIAD392ibinqatrbnJRVVp1dXW+v8HHyMn19/viABUAAHsQGiRhZWlvcnbe4+7S2egrS5ZCXJ5XbaeOkJOElL3Byt6TocX73d9pfbDvjJM1Upnyoaf86euirs3kHS8SPI/K0uPqYGlNYqD4ztHoTFftfITxmJ7mO0kfQ5P1sbert9Psc3zmMkFhdav3xMnnQ1DpWWMACBcAAAXhKYSvAAATF0lEQVR4nO2dfWOiuNbAce1aQAUV8Q2LIL5WndFqfet4O+N0tnPvbq+7nbv7fP9v8iQkQIJgawV02p4/ZoQEkvw4Sc45CZSJnY7I1cWAeZl8//DhlyiFOTYrW+Tq/fiF0IB8+Xr2FrFl1Nnk5dCAaP+OktuJYJNjy4OgQfktQm6ngU2+fumgRsp/ouN2EtjkhyCoMUx008IpYMtkjECoMW9L29TDJgNbvr8pbImbYKi9rbGtcBsQtU8RWrzHx6YebHr8+vnX799//B6lo3B0bPL14Xr2448zINFBOz426e4Aj8qR739FSu3Y2BKzYCy2SOeDo2NTVgFBA/Lrm/FJpVlw1MAId/Y2vIRCQD6VJZ/++PDLh2jYHRNbIiDvwJHPZ5++vHZsgXkHjvzxmWH+FcUYdzxsgXkHLvn8urE1A++ipnyKANoRsSmtUKj993VPCZlYsLOoTS0KaMfDpm7CoBbNfHA8bGHNB19eN7bq4QtV3vJbNJ7CcbCFpWzQw3rF2KTgLV0s2tdXPJMmzsPCxvwZibq9OmzR9NLjYFPCMT9MecXYpEV42P6MYnA7DjY50PgkLZFEeY9kgDyEhy2SgNuRzF05kPUqb/lfBNyO5SV8Cw9bFH7pkbApodm70Qxux+qkj+Fh+/R6sWUygdMyctmcuU9Oe73YYs1A5wStr+cvoeTbRiQG77GwBeleZeeXeV3X5xdALnuvGltwfkK93K9r6GcbYHvd2laYBoVNs39lAbXsq54SwFwa9BKM1r68uABd9DUbILGYGrDBmzVHtjwTzfry8dZJAzV4tfklxJaDv6NY9DsatiBjR0YddtCLy755FMXq1dGwBTcngBm0Y+oaxhZFXPx4e0DUAOcEo68DcJc5dBSBuh0PW8AR3jqyPkwJPwZyPGyZQpDqli1fXMw16/CvsENuoWCTJUWRMk/lCnIu1QxD05zD0C3eELBJymyxvmndPs0tlE1HpoRt8gaOTVZbY4YZM5P7wpNZ70PDFvZsGjC2TPMRRoQWakx9ghpMVkJcwAp3U0Ow2KQ7uJNoPFViGTjmS3CMk6SCR3ctPMqxYF/ncEm4L5cGiq1qvgq0kQCRjNLMTFeLm5vFYnV/LTXVqiLJhAJmphuoj2p4awqhWiFBYquaDFoqUC4ps6DDt+PlpjW7llVFxpml+293UhCvRfpKmFZIcNgyTTNgO0uA36rzBtp4ebNabDBDY7J+VFGXzSitwawpyYEHkGwJczYNDFshZm6YX1QBkSraGTM+Xzw0pzeuCNG3hAzAyXfqLcNMWtOHcPbZA/kSHrXAsMnovdAJpCZBUMvVQ+L25puHLi2vY/LHNTMIz2rD2E6/k0q3CMIUDF2FMbN8jD2ud6xNDb6FuJnBkjDfMA0GmzJF1NZgYJNX57fqbH1+vpwYYSuUv3z6PdT3mQPBVsVm61gBB7K8XCsFRUkk1KbyMLOngyjlx9ezcN+GCQKbikNA53Csl6aDwYNtoGVkKZGQ7nd12DDk79N35TPqGtZ0c3tbhTMk6K4395mqQmaRlertjSe5kKy20OO7B2NT7qAFMZ6qpgtlvUo1vnEMW1MKysfZ1lrV5C6kHTSnHjjKVFeQ01rCjJy3WybrmUL7orI6ozRuvEo0w/IR/h1ynPIwbBkJqtrgHlv+1J7cwbdVrKnIJDq5au8QH6+nTSmk1/yY8NdKD8NWhcOa6VtiLqvJ2CC+KjZe38eqRJw3U50tx5PlenWnKGDakMJ5pxQ6CKesbQX4oZ21SiiU/FF9XFMtGCxbsuqQk6sqDIagYyWkCfa/YVM7DFsTDPKtJnlG8gygTVoPXlHLTGhvy4e+6fkQbNIjDng4cuezbW2wnKqy+3olrJdhwt9jfwA2MKAPporr5PTab/lz8ujSuJBeYIYS+u6ZA7AB6+Facp9Upv7j1eSWVE1pFZ7HesJ2m9IabFOTd7/esnEuyIQXn2S+hP5S6YuxFW7Hd1ujVWHn19iMmwdn0lUWoYXDP4U+kb4cm7S83qKWkfypDTYzxXYbCkpzFd57MOFTezE2+WabWszPVxp8u7ltJuz8GWW6DjMSd8L72x5utwwxHApxI1supjFVIdf6Hs5JaMEHxyN46erFnXRryVi6sxZTxpvzMWAxGK9as1iz6lpeLjTvSaUcxAJ3FSJ47zuwlSvrK5OTxYOSSFQ3m1ksIUmKm26hekv15PFdgLsqsUSwVTwobKrplQ/W103kbyqKnJGr8qxKccuo1/Twt1Q+Bu+XnnInpcX8hN1kpZDaVXgEiCZUrgeX79VqqiF8oyGCT4EEg00GTvn4UaWs38Ls22Yxu3M4yu4pY3LdTIRghvw07yVkrseD1ke3QVJIKBIRpZQe6SlzsGo2qa/uLhf72XKffv/P37/9+a/P379o5OlIvkUWCDbpZlHY8rPceRYMZXYs5KZM+vLnD6p6771O4yna32dnZx8+wK9in33947fPP76Yp39E86dNgumk0tM7deFmNpvbt5WqNlsExsFjM1OYPT5/8zj1l4Y+IHxf/wp7eTRgbM+QAlxmGAyMyfnNfexjM0Esx4w3GxhXL0jPnx6+eH2u/kN037CPDFvm8fH+Olb9COW6RSzVD1rVBJyA9/koe/ghjlPBVkg0m9LD/Wq9pHdmrfH8a20jeZYcm1oI2DIyENphlZWqMl1sxttgxlbkcq/dz9F+rT58bJmCoj6sVo+zKXFOkWYb771/g1YT803ss/c5wj+VEwG2jJQoTG8QoKU1s2YS1z5BovGiFbNWIqp7LZhG8TWeyLApcsvaOwkcBnSuoDxsPKANxpP1tOm8X1Tda599RJ+fjAabav+RzMEigW1f+f5m7ThUg/H5zWp6/XAH9ZIMwO1Hjfn7+Mr2C5MIRj7aLxispaaERLldYLN/vFyvbqHx0VSBVKtV8tLmftQ+nZ2AMOcBidWq8XnLksUS79o632yec+kzsf16ArJfld/lXd7lXd7lXd7lXZ4rdb0R7+oB/aXetyLG5fAqmZ0Xhf6xa/IzSY9j4ddYshzPaceuy88j7SJnfvpnJMa57FOZXVJOQqmHUKtTl3KNS5o/KoJY1Pa8+B82nU4Pk88siROBcHsWcZrS58QO+pUbjfZVNqYYB8I+FxsLMvPsvmWcomgiX8y9/PL9sKVh7vTLSzsdyQvi1QGXv1FsOTbO9g64/o1iA7OnqB1w/dvEluXi4sUhN3ib2KCpdpBn8Cax9bn4i/poPZfD7qs3NiedkqQ3NiOX+6nsZa3Ex/efR3sdrshxxXQeGnnb2LTyqAbSa/w8B78RrMMPx0MqZV2/EmFuEZxp29mzebEG7lbr9FAeILt0N6d3udpQvEpq4Oamh5KkH1B/3i3WhkJDp62qupm153FseNwFnfKxy3IV0Iw01Ue1umXw5vre4ZBshTMbH4+nuCtjG1uyxKJ0XmDzmjEUgAzhTTucgC8UBLaBcxsdLsWbJ0Wum2VGLMjN5b2rCys14gSYnRfZeJkxaiyQf8jWlSv4fqLANciWlYcgK1fS6GMR/hQ48LM2J4uBiezQw/avj0bdtFmDUaczgtpQ77cvuiV8uXHFcYK2fRmj11ArETg+l3ZhyxeJdKGSFeD/pqd7JToJ4gjl7rPESb5YNvOkfLG1a052nuvUzSPOwWY0OKJ0sXjltMAcH/iKRh+XTIJmG8ggxkWKqCMlyf8bDs1KpIbDYQo0aigMWZHniybirAAu9Jor5lycFB41w8F2xdLpqBV+2HpkKyFm9DD8sLkKT5XiNLZcWozT96vYPWYHNi0Oa5F2xg0DcfScKjVNgy1JzTX4C/5JAa3B4xuh5nhcVy5a7U6lRKfJNjad9UxH2AQMEcBMmdjqFjUeZHdy+2Hr1eyHhe7N09jq9j2sguJi3OK0AxszF8w0uyBdcNK8xKVSIHsKGnH9f8xRaLg1uKHHABqWHuXnVxXWqp2FLYcbJqQ6IL1kp5vY8t1GBbW20eiatmIDD4Jc92Ke79r91QdbHRcucpXOVUNM288EY4PzG0rnK5UULjtlDaK7sNWLtHbxLu1zCbB14ymCDVA+6Ghl/9GhzyU2ti7Io17EXSB7oVcSaWwjdMzN0Z/3SYoigY2xRpEUvlsP9Tmhi1JzI3YntqsUKmtkYjLK1gRjYZuncXofdB+j18WH7aexMR14K3ssS5r1SNlZ3dJOgydPHANlAAOjlobVLnG1rYnEKFI1AWC61NiWQxwcH9eoEGObjU3AqV0zUXAMoDm7A5uBNJnT7RO4cIytzrkqp+MTGoHJB1vfLJjNEfXyn5egcgjEvAt6AdSwhhl9q7e3rRasLMQNDTS+YGzmmBBP6056jvXHhroGNYQgbfWucRsVfknUN0ViQ4WzRNeaozNl82AnNqZCkMqiLutrgMPBgBzaQKNAh9btUXRL0FwokENemzRAkG4J5CX5lC+2MkurJmNR9saGTWWycEQKYzML57vkJeZgh/vebmy4LppdkBW59RA4tNU05xjk5+q5oX/M0qyZeEme0moENvMxCTqZjvqtJzaTKO8YoFB29A+PwtEkgbCh3+kymY613yxhNzbCBqnvsD6su5JPR0vDw1LZN78R364Zag3ChkYXlvY6zCfuia3j8VTNhnpi0xAC2u9CNzexZc3C01TXQudQ7Ho3NmxzQBtk/oT1Aed/UjWAW5/S29vTpy2GsI0FNR5hw5pFDwpdX2wND80y+7w3No9ngm7BOVhcYQmDMCzKu7EZqO49qxx/5WFqtC6CTiOUuR3r8k9hy74E25zKXd4PW9fBhkYnXqOueT42NKIBuwLlo+9DCWwlOcKC7lZq+Np4QAzeo590nU5Kj2O45hVfbOa06Yq/7OikqHC6fkQn7aHZhHrqdaJCbmxoEc3xDKwObbZHoB+mu4qk1QYbze/oohYCulEaEQFBvwWqZXX/KcH0l4mKQ/HquFi6xLRo3ZyYEtAzY6lnhjpu0USJbFjHSjCHA3JoN4vmkTFQ2xH+G9FDWxs86OLuZVJTP+i5D9UGz6RxfguELvhiw7YLWaSxZRg6gkyZNDnPzwkDBGkjfSmqL6oPsmidEcS8HanrqCUo6ORvfTCayyEFT3NXdqehVEfpkubuPIXHVaoQP2xIPyj9QWi8saF2k/qB+pVlt3VE98iKrsAdDhnXjhlQ2RpZUVWd0dBbYDwcOx5QjNru7FYeWkEukJOKsaF28LxT9Y7ojw2NTHHOeQpJxMHHr8FRpZFV56wVlULYkIfLd+0m4YCI5bIKFPWsO05odYy422Z2CchFahfQUdc44yGX6IkU8TMzOjgMYRWPQhq8Nd/VG7gm3tgwJS6PW4qdSBJbfd7IW92yjZJFTs8ZmpG9tOKlHOlKxsU4KlxroxiIrc0XqJOje9exU0jOIIaFbZf1AbWU7G5gAhZ2TaOoNNwwttvu95MXoqXXFrYsDhyxDZBevrJiFD7YGOyLC6V5r9+bV6xQkIOtzgpiyh5wG1ZMnY2XRM6OSFrYkC8JHlo339avSvhutgGMu3S62+718iKNlAQL7q/5E4CjL+uMr9CaLz69fFTG3HiBZYlQqq3sOIYR59NUug+2nHW3FMuyTpzSwdYxx22rzxiCnYUn/rXDlLp9O0GwYqQ1pxta0T1Q9RQN3KoO4k57h8ZoSHblPt0p4TLzTusDywUd9I6naGzMSPBK98FmdVNbRHo6xIFHuytlRSroLbqD4nnX7cgwExFL9kokwNIOGmgQT4TQwKxHYgWH/uFMihu5xMIXdZHGpo3IqvM1nd+FjSmTCzrx9GhE2W3IUCRs2HrXaTrPjXKocEdn9CJFRqxRo1S/SFHntnYjmCYzbU4YcN4hQIEBlNyfBRSe9Q99kFJOpa26CUKSqfFAOEKN9bStcOlSX+NgujU8lVl4RC4vZys2CJGbg14J0gW7k5p9XiAdiXKXS6dEURS4UhmbuwKhHdmuM+aluJFr1MkRqQLroSUlkedd0Vmo8JxNH3i55Dybg617khi+VE9xbFpIcyyMfYsVIHEyaGbkWS4tCCwn6BpjxGE6b2Ezj+joQrJSNO9W7IDHdlmC6Y411SimuRLtJmfbF6PGld7XbIOHSu91iqB2aZZjLzxs92SjyHEsy3HC3Gsgb3cbXZftWh6mOcKTZalO2QbjxB6r87lku53c4VFkYfqz9xrW++12ua95pvXbO3aR6a4VJ6v0XjnZ9y092+/1snvsnci1iZ5+Icb33qZ7XOkjIc4YKIR+0IapPaXE71hjOElpFOEGg+LI7pJZNGEctmFqP8mxrnn29KWPrCpRyPdyRj1bHqGZaVccNnBpp382ZQO2L56hUyxXLHKWMV185ta6QKQr1n6616u0rhOjsIWN8unnil5Wy6mLYXuttslbjHI+YPLpXbGR05U5K5A+CstH0kN7l8iQzLE/23xgiaFX0tCWFoB9LHTLWhRl9mupmtk3u7Wf+P3Heratz+d622ezZ/CSF5CR0xke8v7Gm5NeDVgdWj9e+Ul76LGkzNVKtVKUhs4rkVxOO3YV3uVd3uVd3uVd3pr8P4coVYMT5hQHAAAAAElFTkSuQmCC;" parent="1" vertex="1">
          <mxGeometry x="21.71" y="265" width="132.29" height="69.56" as="geometry" />
        </mxCell>
        <mxCell id="XY3Dx2JAYwhzfvwpX6yY-14" value="C" style="group" parent="1" vertex="1" connectable="0">
          <mxGeometry x="213" y="311" width="97" height="96" as="geometry" />
        </mxCell>
        <mxCell id="XY3Dx2JAYwhzfvwpX6yY-11" value="" style="shape=image;aspect=fixed;image=data:image/png,iVBORw0KGgoAAAANSUhEUgAAAO0AAADVCAMAAACMuod9AAABklBMVEXt7vIAx9QArUYBfO7kOSHx8vYR4e7/dVcE1lkMtv9RUE/z9PhOTUxHRkVKSUjq6++xsbOWlpdaWVlCQT/BwcS7u75fXl3k5OhUU1Ly7/M+PDr6+//29PIAeO7z8Pfu9vvV1tmNjY4Au/8Asv8AdO4Aqjj/a0h4d3ioqKozMS6ampzQ0dRqamrkMhXkLg3kKQCEhIUL1eIE20vX6u/ry8vs293/akZIz9pzcnMAdfbL2/EDx1K3z/He6ucAqDDmXk/kPynlSjfmZ1rmdGrnf3fni4TomZPpqabqubfC5evrzs7xSCVf0tz0xb+L2eH2uK4nJSHJTU6pbYb+rJ6p2PU9p+W9W2RvrrB4i7jvUjn2d1rFj4Kk3+bkgGnRSUPfg26cdJEHlvUEiPEIm/eFqKbY4/IJpvpqlsqzl40we595TkZJNzYAt8SXvPAAsaw2hk1DZmsAy6ZxqPAClM0CvE0GuXQM0L0DvYwDwIaG5/ACl8sAh90O19CZ4bix5sXR5dyiwfC53Mhpw4eAyZlLunAotFpkno2BAAALEElEQVR4nO2ai3/T1hWAFcONg64kP2RLshQnNk1iy3YSE8hqoAQolNGu7dau3cbWrSMs3QPYxtqV7kFpCPm/e+7Vw5J9pVjkhfmd70ed2FZUfTrnnnvutSUJQRAEQRAEQRAEQRAEQRAEQRAEQRAEQRAEQRAEQRAEQRAEQRAEQRAEQRAEQRAEQd4wCPxbDCHklU9Uqx3hVR0Ti9dXz964cfPm9Xdv3X7vzk/vXto0uXXmE9Xenykcw/UdLeTu+lnGKrC2trYOrF6/fefuZkZlkJ25eGxXeWQs+roRwBuk371zSZpYuHZxZipsRbqe89r66q27hcVJzsFlp8JWWrwk1mXG66u3Nw/29WSnYNwyUnSZ8K2DfH3ZmZO52kOTqgu+76VOTIHstNhKix+k6Z5du5kS3lB2ZgomXI/FD9bSdFfXLyXpDmWnx/Yg3bNJuhHZKbKVFjdXX0E3Kvv2FNlKZHM11fdnH43r1gozU2oLumdTdX8yphuTnflwqmwP0l1ZGdGtSTPJtoSmdp2UHoNANsjmjRTde/lR3ZjszMdRW1IpNVJ0abv0Guiaabr5fDyZ47IzX8RsZbuf4kMH5dO3Bd2bybp50P35UPftEdv3I7akYrd03jcTYppMjBbMwvAnbRmOabIWjVB4/9X3EA4HKSTr5mO6o7IxW9ovm26RSLTcMly3Bect2a7bBM2m7dpNArYt1zVMiTTgfSMt6Y+VFN18RLc2Jhtb8Jl22+n1QM6wO4223aHFX1QLVbdK2267UXQ7TktvNqr6gBKrZ5o967RsgesJutw2v8J0BbLRRQEtuiatug1Cyz2HOK0ypKtDTLvjGAN43iw5Lc0htOOSittwnIbbPU3dtdU1gXHe1/3lokg22lxQYyCZplqitMyyt6MT0rZcW+s4CjyH6QcyGV5vu4WiWrYsiyX96XH9k08/WR/zzYe6AtnodEu6uu66rioTz7ak0r5WNQnEVoZKzeqWbytV7WIFME9Rdv6zc+fPf/6rkVXgjXyo+2uBbWS6pU2VKRTtCi1bEElIZxB1uvDQsiCw2sAJYttwi/BG8xRt5z976xxw/jdx3Xuhbb4jsI2WZJhrCSFUHjiGajUNt+L07WZT10u06xolw+06bL5ltrTvNku2ceqyoPt5bPSupMc2UpLNJp9SoJ9yyqViq1+B7G23+t1OhdBGs9VsUFJsE0j4Jito/f4pjtpQlulGozsM7W8FsrHVrd8uEFalHMqfwe+8dYaf/If3mv/GKWh6RGRHdNNDK14BUV6DX1tqVyKysbE7HLa/E4X2C6Et6TZOWCALI7Kg++n66LD9vUg2aev8NOfRgxiTBd0/rMYTWSw7TZtSPrUro66AP3SDRP5SLPvxIW1Z8aJem3VC6VDbgVCeZ/Hkj0Fw/7geaZKFYzYhkWHKjV059FAFsQopFPs9A9pN2jTKJ9Mzg+xX97fPMLbvP/jqXGg8bKRW/pQgK9yBqxaLlciV046t2kIV0lVVBdBNain6icy+tYsPztTPhNTr2w/eOh/WZVajVr58lCAba6R8mJzqRnRpU5P1ikjFVBVZVTVVLtCyop6ELdnZjrj6xme4MCtULLJJgRWHlsqAFtmuoU1ds0W2tKPKattkBfyEbGs7o6pBhCGl/7x+L7/yl0RXYWhJRZcVWVaHH3OSbqnUEbX/tKcofcf79WRsC0JZP8B/1f+WVJ04oj6K9hWlZcnRaydUvK9K5PCwk7Gdvz+WxkOWHmoPE0csQ/QxtanLaqWkKb0JOkcYtVWxLTnEl3wSmX+8lOxa//s/Hv5zNlsew2pOlRXS0GV9uMMGqwIaOFC+GoAf7AFiW2FLREKcqC2lZrfbNYOECP+cvRXZnI+8PBk7iZGtLz2a25jLPZmdnb2QQVaihqKVqPcYyDasco//UpStjmOWeuVyj/atchnKGTxyhklNpLZh67puG23ef8KfWy0S3EvLCupdoeyddWLm/5Vke/nrqxtzc9/klmdnk3yFywHShah2CYuwFgQB6pZis6SnJVVrVXSNzbBSGR5Z9VY8QlvSKMMcrKlwlGrx/DBtxfYThciK1vLzpKorRqZ030nI43r9KbjOzeVyy09nZ4XCF8RrH5hbFYPy0RtOsaSiyrpnq8kGSLDA0QHEj01Vuofi2xJTU2Td6LQ7BtR2zSS8dKttGtzLoNpDNdQ6WVJ5/rE4tJe/nuOy3+Ryua3ZIRcC5QsXZsWykqTJ/Mp4ZQ7GXdRW1oxqo9EwWZ122Lh1eKMcjltQg9LFXnSqoMtqHW1ryoCfi59A9e+ixpIogy1JyOJH3JWFFvj3rIgEWVL1xdisq5sCW6VHaFhwx2syi55a9G4TGw4sQXjN4wGF/lLxGxce5kxf2ntHmMiXn/iyV7nt8reTy0p0AP2Cl3Sy7Kdf3FaPfhgybstGQvgBArFkjW9DWwoPKGgrfRjvkncuLdP2iLhGXX7qy/JEZozL/idBlgyHK+1oSllgG4uHwBaKeSgRFIHADM7JpnL+f4ADVWHvnWgrjGwoO+fLjudykiy7HFn2FRt6MK6itvzqU2xZONuhLZ+7vWGhUe+gQldn5sPsnhByRZDIS49C2auB7fKTCWVZyoV1EsqNH6UstpIS6TlJEeaxgncg3DmWyC1KoGYTdiPCKjgRNUFFrv8vlA0TGeryt5PJshiowbgcXmoW28KoLZ9vaF+DuwiG8B6kN5vQBxn7atGwvfxdKBsm8ohusiybdobtgmIFDcPhYwulHuYiyBYo83BLoU0rqLKd6VMV0bDd3hDaRgpziixrKeJ4S4PDjVv+xIQzmKbuTbtQtZ2KOtGyY4igkar/d2h7NWqb23pysCyFUChqBNmbb7LYstEebgRAAvvHs8StFlXvkL6mN5ra8KZMgmi2FQ9bL7r7/z9Alk0KyqBgDoE8ZDUrk21skpLloNAVVaXfUni/AqfT2uX4xH0goraxfubZRoIt83363f61hcQTsklBrUZk2H6UktGW91J+1NhGTjCJ8UHiJy+MWSgO2b6bI+wtCguh7qgs84X/knVZWLSYftfrNTJVKchZWW/z3rkNs+wgmM8MJWzOeDHUsn3vav7+uOxOTVr4fiPRlpOsq8gjvRxLbZgUM9nyNZBqNTtNC6qAYgYLW9a36N4z1ownbGIm2wplpVA3yTZJl603R3aNITqKbcbWt/EE1BQ9sA33k/31rcbWt4YZTkZdW9GCO1XQ4YAsrvAnY4m8453a1020zT0X6pKKYYx+C87sGd5Xowy++UCqhhGNPmkZwTemaNMw/FtFSLHHlsBqrxjZnKJ9w6iEgTaMTBVZMAHtBKf2dJNtk3QFO4veS+E7o4dEPvyJfg5EaAGWwIX4B0PRA2jCJmYio11yfWd4bq47VpMj1Uqse5Qc8Z4jiU+3UVnQ3d1Isz0J3aOF/BAdt/Ur8baB6abYTp1urLmoX5kfeXthN9U2t7w7VbrR5mJpTBZ0n199g3QjtiJZpps2cmGdME26Q9uld0SyTDfVdqp0w4+7kmTfKN2gTU6WBd1rL5dTdb+fFt357QNlgYVnW2m+U6Pr2R4gy8L7YjnFd1p0ue3SDwfISsx3L5fsu/VsKnSZ7SSywIK0+yKXFOHp0CXbk8oCCwtkd+/l8pZIeWtvGnQzyDIWgOe7ey/2IcqcqdIl24+zyHow5YVrz3d3n+3tvXj5cn9/n+kuH8PlHTXzr/x1zNpChNf5m7kIgiAIgiAIgiAIgiAIgiAIgiAIgiAIgiAIgiAIgiAIgiAIgiAIgiAIgiAIgiAIMn38CF9rhWCbEavNAAAAAElFTkSuQmCC;" parent="XY3Dx2JAYwhzfvwpX6yY-14" vertex="1">
          <mxGeometry x="6.984" y="8" width="85.36" height="76.7076" as="geometry" />
        </mxCell>
        <mxCell id="XY3Dx2JAYwhzfvwpX6yY-13" value="" style="verticalLabelPosition=bottom;verticalAlign=top;html=1;shape=mxgraph.basic.rounded_frame;dx=10;whiteSpace=wrap;fillColor=#f5f5f5;fontColor=#333333;strokeColor=#666666;" parent="XY3Dx2JAYwhzfvwpX6yY-14" vertex="1">
          <mxGeometry width="97" height="96" as="geometry" />
        </mxCell>
        <mxCell id="XY3Dx2JAYwhzfvwpX6yY-17" value="" style="group" parent="1" vertex="1" connectable="0">
          <mxGeometry x="335" y="322" width="163" height="74" as="geometry" />
        </mxCell>
        <mxCell id="XY3Dx2JAYwhzfvwpX6yY-3" value="" style="shape=datastore;whiteSpace=wrap;html=1;fillColor=#f8cecc;strokeColor=#b85450;" parent="XY3Dx2JAYwhzfvwpX6yY-17" vertex="1">
          <mxGeometry width="73.14336997980702" height="74" as="geometry" />
        </mxCell>
        <mxCell id="XY3Dx2JAYwhzfvwpX6yY-10" value="" style="shape=image;aspect=fixed;image=data:image/png,iVBORw0KGgoAAAANSUhEUgAAAaIAAAE7CAYAAACfYoXkAAAACXBIWXMAAAsTAAALEwEAmpwYAAAgAElEQVR4nO3deVxUVf8H8A/DMAwwgKzigormkmBaaj5qauZeZtpiai6ZmrmLu+aWmRuapWia1qOVS5Zpaqm5lEu4oP5Mw91cQBBcAIFhYIaZ3x82Pi4oc2funTvL5/1PL+Ccc78a8uHce+45HiaTyQQiIiKZKOQugIiI3BuDiIiIZMUgIiIiWTGIiIhIVgwiIiKSFYOIiIhkxSAiIiJZMYiIiEhWDCIiIpIVg4iIiGTFICIiIlkxiIiISFYMIiIikhWDiIiIZMUgIiIiWTGIiIhIVgwiIiKSFYOIiIhkxSAiIiJZMYiIiEhWDCIiIpIVg4iIiGTFICIiIlkxiIiISFYMIiIikhWDiIiIZMUgIiIiWTGIiIhIVgwiIiKSFYOIiIhkxSByMclHDuH7ft3w60v1cDM+DoaM63KXRET0RB4mk8kkdxFku+Qjh5Cw9HMkHzkEAKgZFISaQaUAAJrmbVCqcw8owyPkLJGIqFgMIif3cACZ3R9EZgwksgeTyYSUlBRcuXIFV69exYULF5Gfr4WHhwKhoaGIiopCxYoVUblyFEqVKlXygOTyGERO6nEBZFZcEJkxkEgKWq0Whw8n4pdffsGJEydLbK9QKPDaa6+iRYsWqFq1qh0qJEfFIHIyJQWQ2ZOCyIyBRGIwmUxISjqFBQsW4sqVK1aN0b79y+jRowdnSG6KQeQkLA0gM0uCyIyBRNbKysrCsmXLsHPnbpvHCgsLw5Qpkzg7ckMMIgcnNIDMhASRGQOJhDh37hxmzZqNa9dSRRtTpVJh9uyZqFmzpmhjkuNjEDkoawPIzJogMmMg0ZMYDAZs3rwZS5Z8Kcn4arUa8+fPQ+XKlSUZnxwPg8jB2BpAZrYEkZk6ujZKvd0T6ujaNo1DruNOZibmL1iIhIQDkl6natWnEBcXBx8ftaTXIcfAF1odxN+b1mP5y03xfb9uNoeQWHRJf+H65JG4PnkkdEl/yV0OyazoRgY8Jg9FeaX01zp//gI2bNgg/YXIIXBGJLO/N63HwSWfIyvtmqjjijEjehhnSO6r6EY6tB8OhunKUaB6E0zK98KZq+J+zxbn229XIjw8XPLrkLw4I5KJeQa0bcoY0UNIKpwhuaeijHRoJwy8G0IAcHYfxlWvCE+F9D8+/vwzQfJrkPw4I7IzqWZAD5NiRvQwzpBcX1HqNWjHvw/T9dOPfO3kq0MwbfNvkl4/ODgYK1f+FyqVStLrkLwYRHZirwAys0cQmTGQXFPRtRRox/eDKf1s8Q18Q7C6dltsOHDkiePUq1cXMTHRMJmAHTt2IDU1TVAdy5d/icjISEF9yLkwiCRm7wAys2cQmTGQXEeJIfQvU42mGJttwqW0jEe+FhVVCcOGDcXTTz9973P5+flYtGgxduzYaXEtU6dORsOGDS1uT86Hz4gk4ozPgGzFZ0iuoSjlKrRj+5QYQgDgcWYvJj5T/ZHPt2zZAnFxcx4IIQDw8fFB797vQiHg+VJKSorFbck5MYhE5o4B9DAGkvMyXP4HeaN6wnTjvMV9ArYvx7j2re593LdvH8TGDoe/v3+x7UNCQhATE23x+Hq93uK25Jzs8EaA+0g+cgjbpoyRuwyHYQ6kSustvw1D8jFcugjt2N5AtvAZSN19G/FakxZo8trrqFWrVontg4ODLB6bTw9cH4OIiGC4cA7asT2B3Eef9VjCs1E79O/RD54hoSW2zcvLw+HDiRaPrVTyx5Sr4/9hIjdn+OcCtON6WxVCHqFVoBo8Gd7/eQHw8CixfVFREVavXg2tNt/ia5QrV15wXeRcGEREbkx/9jTyx/UEtLcE91V2GQP1m+9A8ZhnQQ/Ly8vDkiVL8dtvOwRdp1y5soJrI+fCICJyU/ozp5A/tjugyxLUz6NaY6j7j4ZXzDMW90lNTcXMmbNw7pzliyAAwNfXBxERZQT1IefDICJyQ/rTScgf10NYCCm84PXeFKhffR0east3xT5+/Dg+/ng6cnPzBNf51ltvcgduN8AgInIz+hPHkT/+HcBg+XMaRb32UH8wEsrIihb3MRqN2Lx5MxYvXmJNmQCAJk2aWN2XnAeDiMiNFP51DLoJPSwPId8QeA/6GN7NWwGenhZfJy8vD8uWLcfWrdusrBTo0OFVbu3jJhhERG6i8P+OQjexp8Uh5NmuH3x69IPCgiXZ90tLS8OsWbNx5kzJOzM8TmhoCLp37251f3IuDCIiN1B47Ah0H74DGEvepcAj4ml4D54EVb0GFi3Jvt+JEycxbdrHyMnJsbZUAMCYMaMRGBhg0xjkPBhERC6u8FACdJMtm10ou4yB+q13oNBYtiTbzGg0Yvfu3xEXN9eaEh8wZcok1K7NjXPdCYOIyIUVHtgP3dSeJbazZkm2WX5+Pr7++r/YtGmzNSXeo1QqMWXKJDz//PM2jUPOh0FE5KIKDuxDwdReT25k5ZJss5s3byIubi6OH7dtc9vSpcMxadJEVK1a1aZxyDkxiIhcUMGe3SiY0feJbRT1O0DdP1bQkuz7nTlzBh999DFu375tVX+z+vXrYcSIWAQHB9s0DjkvBhGRiyn4fScKZr3/+AZWLsk2M5lM2LVrN+bN+xRGo9GGSoHOnd9C9+7vwNvb26ZxyLkxiIhciG77Lyj8dMhjv+75Sn/4dO8LRXCIVeMXFhZizZo1WL16rbUlAgAUCgVGjhyBFi1egofAlXnkehhERC5Ct3UTCj8bXuzXPMpGw3vgh1YtyTbLysrC/Pmf4eDBQ7aUibCwMEyePBHVqlWzaRxyHQwiIheg27IBhQtHFvs1a5dk3+/ChQuYNu1jpKdbd16RWb16dTFiRCxCQqybkZFrYhAROTOTCfk/rYX+yw8f+ZJH9SZQDx4Hr2pP23SJAwcOYPr0GTAYDDaN8+abr6Nnz558HkSPYBAROSuTCfk/roZ++aQHP2/jkmwzg8GANWvW4rvvVtlU5t3nQbFo0aIFnwdRsRhERM7IWATtqhUwfPfJA5+2dUm2WV5eHhYv/gI7d+6yaZzAwABMnjwZMTHRNo1Dro1BRORsioqg/e4rGFbP+t/nbFySfb9bt25h1qzZOHHipE3jREfXxNixY1C6dGmbxiHX55BBVJBzB0dX/ReZB/ah/tM1oY6pDVXUU1BHc/8pkkbykUNIPnIQyUcPoZq+EFV79YOmeRu5y3qEyWBA/leLYfjps3uf83z5/bu7ZFu5JPt+V65cwdSpHyE1Nc2mcdq3fxl9+vSBr6+vzTWR63OoIDIH0NHVK1CQcwc1g4Kgzc2CNjHhXht1dG34RNeBd8wzDCaySkHOnbvBc/QQko8cQsbZUw98vXLZMrgZH4fsdd8isHMPhwkkk16P/OXxMGxcCECcJdn3O378OKZM+Qg6nc6mcQYOHIBXX20PhUJhc03kHhwiiB4OoCfRJf0FXdJfwLq7H5uDySuqMtTRtaHw09ihYnIm2akpSD5yCDfOnS42eB5Hn3HdYQLJVFgA7eJPUbR1GQDzkuzuUGhs/343mUzYunUrPv98oU3jBAYGYNKkiahVq5bNNZF7kTWIhATQ49wLpn95V6oC75rPQF2rDoPJTZmDJ+XoIaQkHkRW2jWbxns4kHyfb2zX7ytTQQG08XEo+u1r0ZZkmxmNRnz//fdYseIbm8apUaM6xo8fh4iICFHqIvciSxBlp6bg2OoV+HvTeqsD6HEKLl9EweWLuPPrBgCAV3gEvKNrQx1991aeMpz/UFxNxtlTD9xqE/t7yswcSAq/LxD4yhvwb99J8kAyFeigXTAHRbtXQTVwDrzbdYCHSiXK2Hq9HitWrMCPP/5k0zjt2rVFv3594efnJ0pd5H7sGkTZqSk4sHQB/t603m7X1Gdchz7jOnJ/3w7gf8GkqlQZ6ug6UEVVsVstJA7zwoKMf2+1SRU8j2PMy0XmupXI/mW9pIFk0mqR9+nHgC4fvst2QFm+gmhj5+frEB8fb/Py7IEDP8Crr77K50FkE7sEkRwB9DjmYDJT+GmgrvkM1DG1GUwO6v4VbclHbNvnTExSB1L+um/h1aw1vBs3BRS2Lcm+X15eHubP/wz79u23egyVSoUJE8ahYcOGotVF7kvyIEpY8jkSli6Q+jJWM+blQpuYwJV5DqKkFW2O6P5AKtW5BwLavyHKuL7v9hdlnPvdvn0bn3wyA3//nWT1GGFhYfjooymoUoW/tJE4JA+i5KOO8xuspbgyz36yU1Nw4+xppwqexzHm5UJ7OEG0IBJbdnY2pkyZinPnzls9Ro0a1fHhhxMQHh4uYmXk7hxi+baj48o88Yi9oo0sk5ubi08+mWFTCDVr1hRDhw6BRoQl40T3YxBZ4eGVed6VqsAr6iloi2w7rdJVHV31XyQfPYSbZ04xeGSQn5+PuLi5+OuvE1aP8c47XdG1a1d4eXmJWBnRXQwiEdwLJhvfSHdVv8+dLncJbstkMmHFihU2HWY3bNgQtGvXrsSds/Py8qDT6XjWEAnGNZdELmz//v3YuHGT1f0nTpyAl19+2aLjGzIzM9GtW3fMnj0HiYmJKCgosPq65F44IyJyUSkpKZgzZ65VfZVKJaZPn4Znn31WcN/du3/H7t2/Izg4GF26dEbjxi8gNJSzJHo8zoiIXJDRaMQXXyxBYWGh4L4ajR/mzYuzKoTud/v2bSxevATvvNMdS5YsRVqabTt6k+tiEBG5oIMHD+LIkaOC+4WFheHTT+ehRo0aotazYcNGvPvue1iyZCnS09NFHZucH4OIyMXk5eVhyZKlgvuVLh2OuLjZqFjRttNdn8QcSGvWrEF2drZk1yHnwiAicjF//LEH6ekZgvoEBZXCjBmfoEyZMhJV9T9GoxErVnyDfv3ex/79+2E08rUHd8fFCi5CayhCjt6IQqMJWYV6nMzMQylVOioH+CJc7Y0o/wBE+KrlLpMkptfr8f333wvu99FHU1G+fHkJKnq87Ow7+PjjT9CoUUP07dsX5cqVtev1yXEwiJyUOXjyDEXIMxQV2yarUI9jN823PzKg9lSgkr8fKml8GEwu6sSJE4JnQ7Gxw1C9enWJKipZQsIBHDx4CO+91xvt27eHjw+/L90Ng8hJWBI8JdEVGXEmKwdnsnLAYHJN27ZtF9S+QYPn0apVK4mqsZzRaMTy5V9hz549GDEiFpUrV5a7JLIjBpGDEiN4SsJgci05OTnYu3efoD59+/aBp6d4R0zY6vz5Cxg0aAhGjBiOFi1a8JwjN8EgcgBFJhPyDCbk/xs6UgVPSR4OJgCoqPFBlQA/VNT4o5I/T+B0ZP/884+g9h07dkCFCuIdticWo9GIuXM/xfHjx/H++/0RGBggd0kkMQaRDO4Pnjt6A3QOvFnqldx8XMnNB3ATAIPJkSUlCTtjqE2bNhJVIo6dO3fj7NlzGDt2DKpWrSp3OSQhBpEdOFPwlITB5LiSkiw/y6lixYqoVKmSdMWIJDk5BUOHDsfIkbFo0aKFRXvekfNhEElAb1Ig32BwieApyeOCqYyvLyI1fvBxoOcPrsxkMuHUKcuDqFWrlk7z/MVoNCIubh7S0q6ja9cuUCr5Y8vV8P+oiNT//tC9rtUhq1AvczXy+F8w4d7iBy/+Eiu5nJwcaLX5FrePiqokVSmS+e67VUhPT8fAgQPg6+srdzkkIgaRiPy9vPBm5ah7H1/OyUOaNg9ZhUVI02rv/YB2RX5KT/gpPeGj9ITSwwRfpXkm5LqzQUeSm5srqH1oaKhElUhrx46dSE9Px7hxY3nukQthEEmokr/fI89NsgoLkZGvQ5pWi1RtgdPNntSeCqg9PaFSeMDfSwFvTwU8ed/e6ahUKrlLsNqJEycxatRoTJv2ESIjI+Uuh0TAILKzUioVSqlUqPbQklRHnD09fpZDjsbdHuKnpqZh9OgxmDVrplMsuqAnYxA5CEtmT7d1BcjQCT9fpiSc5Tg/oQsP7ty5g7Jl5d3bbdSoEVi//idcunTZqv6ZmVkYNWoMZs+eiSpVqohbHNkVg8iBPWn2dEunRYbOgDStFun5BRatzFP/GzCc5bgef39/Qe3T09NFP3NIqJo1o9G4cWOsXfs9vv9+nVVj5OTkYMyYsZg1aybfNXJiDCIn9LjZU1aBHldyc+7NngqNJs5y3ISvry/Kli2D1FTLTkE9ePAQmjVrJnFVJfP19cV77/XGs8/WwcyZs5CdfUfwGLm5efdmRnKHK1nHOV4koBKVUqlQyd8PzcpEoGuVimheNhyRfiqU9vGCr9KTIeQGoqOjLW67e/fvDnUw3bPPPov4+IV47rk6VvXX6XQYPXoszp07J3JlZA8MIiIXUb16NUHtDx8+LFEl1gkPD8fUqVPRrVtXq/oXFhZiwoSJuHr1qsiVkdQYREQuQuiZQkuXLrPqVpiUvL290atXT0ycOMGqnR9ycnIwceIkpKenS1AdSYVBROQiKlWqJGin6pycHGza9LOEFVmvSZMmmD9/HoKCSgnum56egSlTpiIzM1OCykgKDCIiF6FSqdCxY0dBfb77bjUSExMlqsg2NWrUwGefzUe1asJXw126dBkffzwdOTk5ElRGYmMQEbmQF15oLLjP9OkzHPa5SkREBGbM+AT/+U8DwX2Tkk5hwYKF0OudZ+cSd8UgInIhFSpUQMuWLwnqo9PpMHXqR0hNTZWoKtv4+/tj3LixePHFpoL77t27D6tXr4HJZJKgMhILg4jIxbzxxhuC+1y7loqRI0fj0qVLElRkOx8fH4wYMQLt2rUV3Hf16jX4/fffJaiKxMIgInIxlStXxhtvvC643+3btzFixEgcO3ZMgqps5+3tjUGDBqJTJ2HPwQAgLm6eoPOayL4YREQuqHPntxAcHCy4n1abj/HjP8TKld9Ap9NJUJltvLy80K9fX8FBazQaMXXqR7h+/bpElZEtGERELqhUqVIYOXKE1f1Xr16D8eMn4OLFiyJWJQ5PT0+8915vvPxyO0H9srPvYPbsOcjPl39ne3oQg4jIRdWrVxe9evWwuv+pU6cxcOBgfPHFF7h586aIldlOqVRiwIAP0KKFsIUZp06dxooVK7h4wcEwiFxEflERbuh0uJKTi1OZWQCAmkFBKOfnhzAfH3h5cn9bd/TWW2+hceNGNo2xceMm9OnTD5s3b8adO46zE4NKpcKQIYMFL+3euHET/vwzQaKqyBr86eQk8ouKkKvXQ6s3IM9gQL5Bj1xDEbR6PfIMhkfa1wwKQs1i3krPKiyE3mhEZkEhDEYjsgsLUWg0IqtQD33Ro+OQc/Py8sKIEbG4cycHJ0+etHocnU6H+PjFWL78a3Tr1hUtWrzkEMeN+/j4YPToUZgyZSr+/jvJ4n6zZ89BpUqLUL58eQmrI0sxiByE0KCxVql/j4gOU6uL/TqDyvVoNBp8+OF4TJkyFWfP2rY7tU6nw9df/xcrVqzEa691QLNmTVG1alUolfL9KNFoNBg3biyGD4/FzZu3LOpTWFiIuLi5mDVrJnx8fCSukErCILITewWNrRhUrikoKAgffzwNM2bMxPHjf9k8ntFoxIYNG7Fhw0aULVsGHTu+hoiICBEqtU5YWBimTJmMYcNiYTSWfEgkAJw5cxarVq1G3759JK6OSsIgElF+UREytPkOHTS2KimoigvcSzm59iyRHiMwMBCTJ0/C4sWLsXPnbtHGTU1Nw+LFS0Qbz1rVqlXDhAnjMH36DIv7/PDDj6hb9zk8++yzElZGJeFiBRHl6vVIvHEDpzIzcSknFzfy810qhCzh4+mJMLUaFf01qBlUCnXDwuQuie7j5+eH2NhYvPtuT7lLkUSTJk0E/9nmzZvvUIcEuiMGEZGbUSqV6Nq1K2bNmmHVMQuO7q233hK0L92NGzewYsVKLumWEYOIyE09++yzWLQo3qr928Rw5440sxClUokPPvhA0M4Sv/66FQcPHpSkHioZg4jIjYWEhGD48GGYM2cWKlSItOu1hw8fgcmTp+CPP/bg1i3LVrtZKigoCGPHjhbUZ968+aLXQZZhEBERateujfj4hRg+fKhdl2IfOnQYM2fOQrdu3fHRR9OwZ89e3L59W5Sx69SpI+h5UU5ODm/RyYSr5ogIwN3drdu1a4fnnnsO27Ztw9q16yxeCi2GhIQDSEg4AABo2rQJmjVrhlq1YhAYGGj1mJ06dUJi4hEkJVm28/Zvv+3ASy815yo6O+OMiIgeULp0afTq1QvffrsSvXr1kOVl1b179+Hjj6ejc+cumD17Dg4cOGDV9kJqtRojRsQK+jMsXBiPvLw8wdci63lOnTp1qpQXSNq8HndSr1nVN8zHB2E+xb+v4oi0BgOuOMg7M470d2fe+85ZVPL3h5+VP3yV4RHQNG8jckXy8PX1Ra1atdCuXVuEhobg0qXLsuxcfenSZfzxxx788MOPSE9Ph6enJwIDA+Ht7W1R/4CAAJQqVQqHDh22qH1OTg7UajVq1aplS9kkAG/NEdETBQcH4/XXX0f79u1x+vRp7N79O7Zt2y5LLTt27MSOHTuhUCjQpk1rNG7cCE8/XRMajd8T+7Vq1RLbt2+3eIujlSu/QcOG/0FUVJQYZVMJeGuOiCyiUqlQu3ZtxMYOx5o1qzBq1AjUqFFdllqMRiO2bt2GiRMn4+23u2DhwoU4evQotFptse1VKhUGDhwg6BpfffW1XZ+RuTPOiIhIsODgYLRq1QotW7ZEamoaTpz4C9u2bceZM2ftXovBYMCWLb9iy5ZfoVQq0bp1KzRq1BDR0dHw9fW9165GjRro3PktrFv3g0XjJiYeweHDiYKPmSDhGEREZDUPDw+UK1cW5cqVRUhICN5443WEhIQiOCgEXv/uS2hPBoMBv/66Fb/+uhUqlQotW7ZAo0YNERMTAx8fH7z55hvYvn07srMtW/iwePFi1KoVAz+/J9/6I9swiIhIFCaTCbk5d5CbcwdXr1yCn8Zf1lAqLCwsNpR69eqJBQviLRojPT0DO3bsRMeOr0lcrXtjEBGR6Bw5lIQuR1+2bDkaN26EMG7gKxkuViAiSZlD6crlf3D8+BGcPZOEjIzrCAwMkKUeg8Ad8Q0GAzZs2ChRNQRwRkREdmQymZCdnYXs7Cx8+eWXKFu2HE6c+AubN2/BxYv/yF3eY61f/xPatWuLyEj77sfnLhhERCQb80KHtm3b3lt99/PPm3Dp0mW5S3vE2rXfY/ToUXKX4ZIYREQku/tX37Vu3RqXL1/GsWP/hy1bfsH169flLg8AsHPnLnTq1BFPPfWU3KW4HD4jIiJR+Pv7IyCgFDw8PGwax9PTE1WqVMFbb72Jr75ahvj4BXj33Z4IDQ0RqVLrrVmzlrtzS4AzIiISRUBAAGo8HQ2DwYCsrNu4ffsmsrOybPrBrVQqUbVqVVStWhWdO3e+N1P6+edNuHHjhojVW2b//j9x/vx5VKtWze7XdmUMIiISlVKpRGhoOEJDw0UNJfNMqUqVKujUqSOuXLmCY8f+Dz/9tEG0M4ws8eOP6zFhwni7Xc8dMIiISDIPhpIeWVmZ90LJ1nHvD6WLFy8iIeEAtmzZgtxcaY9w2LNnL7p27cINUUXEICIiu1Aqve6Fkl5fgJAQcZ75KJVKVK9eHdWrV0e3bl1x/vwFJCYmYtOmTdBqpTm2YsOGjRgxIlaSsd0RFysQkd15eXnD21v887K8vb0RExON3r3fxZo1qzFnzix06vQaVCLv5rB9+29ISUkRdUx3xiAiIpekVqtRu3ZtfPDBB/jhh+8xb95cdOnyNtRqcQJw167dooxDDCIicgNqtfreTGnt2jWYN28uOnXqaNMx6OvW/YDs7GwRq3RffEZERG7Fx+duKMXERKN793dw+vRpJCQcwLZt2wUdhGcwGHDw4EG0aeMaR8PLiUFERG5Lo9Ggfv36qF+/Pvr0eU9wKK1atRrNmzcX/RmUu2EQERHhwVB6991e+PvvJOzduwd//LH3sX3S0zOQlHQKzz5bx46Vuh4GERHRQwIDA9G4cSM0btwIgwYNwtmzZ5GQcAC//rr1kba7du1iENmIixWIiJ4gICAA9evXx7BhQ7FmzSpMmDAeDRs2uPf1HTt24ubNmzJW6Pw4IyIislBwcDCaNWuKZs2a4tatW/j77yTs2rULR48e5aIFGzCIiIisEBISci+UsrPvyF2OU+OtOSIiG8l17LmrYBAREZGsGERERCQrBhEREcmKQURERLJiEBERkawYREREJCsGERERyYpBREREsmIQERGRrBhEREQkKwYRERHJikFERESyYhAREZGsGERERCQrnkckIo2XF+qHhSHPYEC+QY9cQxG0ej3yDAa5S7ObrMJC6I1GZBYUwmA0IruwUO6SiMjBMYhE5OPpiYr+mmK/ll9UhFy9Hlq9wamDyvznuD9oCo1GZBXqoS9ynj8HETkOBpGd+Hh6wsfTE1AX//XiZhJy/IB3lcAkIufBIHIQpVQqAECYuvikEiuoGDRE5GgYRE5CaFDlG/Q4lZnFoCEih8cgchEPB9WpzCycysyUsyQiIotw+TYREcmKQURERLJiEBERkawYREREJCsGERERyYpBREREsmIQERGRrBhEREQkKwYRERHJikFERESyYhAREZGsuNeci/AKj4BnSBgUGn8ow0rjeT9/VElPQ+rlf6C9fQtpNzKQlXZN7jKJiB7BIHIyCj8NvMJKw8NPA2V4BJSlgqHQ+BfbtkzFKJSpGPXA525mpON2agpysrOQdvkf3Ei+ygPtiEhWDCIH9vAsRxkSZvOYoeGlERpe+u4HzVoAAAp1Otzi7ImIZMIgcgBCZjlSUKnVnD0RkWwYRHYmxSxHKpw9EZE9MIgkIvcsRyqcPRGR2BhEIsovKkJRtZqo0KiZ3KXYXXGzJ2NuDlJOHMO2HdtkrIyIHB2DSES5ej327NgG7NiGspUqo0ylynf/+9DswVWZCgqgv3Edhuup0F9PRVHmLWjkLoqIHB6DSCKpl/9B6uV/cPTfj10xmIoLHvxHGuwAABUvSURBVCIioRhEduIKwcTgISIpMIhk4gzBxOAhIntgEDmI4oIpJKIMylS8G04qtVryGoy5OTBk3WbwEJFdMYgclDmYTh78EwBQqkw5RFasJGowGXNzoE9PgyE1Gfob6TDm5do8JhGRUAwiJ5GVdg1ZaddsCiYGDzmKJk1eQGBgoNxlkINgEDkpS4KJwUOOJiioFAYMGIAmTV6AQsFTaOguBpGLeDiYagYFoWZQKZmrIvqfV19tj3fe6YagoCC5SyEHwyAiIklVqBCJQYMGok6dOnKXQg6KQUREkunVqwc6deoEHx8fuUshB8YgIiLR1a37HD74oD8qVKggdynkBBhERCQaX18fDBo0CM2bvwhPT0+5yyEnwSAiIlEEBATgq6+WIzg4WO5SyMkwiIhIFAEBAXKXQE6KQWQDr/AIeFWsDHVMbaij68Dz1k2gXze5y3I4o/7vIpKPHELykYNIPnoIGWdPoyDnjtxlEZGDYBAJ4BUeAe/o2lBHPwN1dG0owyMebHDrpjyFOYHIeg0QWa/BvY8zzp66G05HDyH5yCEGE5EbYxA9gXelKvCu+QzUtepAVanKo8FDVguvXhPh1Wui7ju9AdwNpoyzp5Fy9BBSEg8iK+2azBUSkb1IHkSN+g9DAj5H8pFDUl/KZvcHjzq6NhR+PF/UXszBFNPhDQBAdmoKko8cQsq/t/Iyzp6SucKSaZq3QanOPeQug8jpSB5EkfUa4O16q5F85BASljpWIKmja8Mnug68Y+7eaiPHEVi2PAI7lL8XTAU5dx64ledIwWQOIM6Yiaxjt1tz9wdS0ub1+HvTentdGgCg8NNAXfMZeEdVZfA4IW//ADzVvBWeat4KwP+CKePsqXvhZG8MICJx2P0ZkfmhdcP+Q3Fg6QLJAskcPOYVbaqoKpJch+TxcDABeGBlnlTBpPDTIPCVN+DfvhNv3RKJRLbFCoFly6PtR3NEC6QSV7SRy5NyZR4DiEg6sq+aszaQzAsLVJWfYvBQsYpbmZd85BBunDtt8co8BhCR9GQPIrOSAokr2shW5mAyu39l3sPBxAAish8Pk8lkkruI4mSnpuDWlg0o27ip0ywsSD5yCN87yM4KjnQwXqX1O+UuwSLmBRB+2bdRutUrDCAiO3GYGdHDAsuWR+D7Q+Qug9yIeQEEEdkXD40nIiJZMYiIiEhWDCIiIpIVg4iIiGTFICIiIlkxiIiISFYOu3ybiIgsp9frYTQa4enpCaXSuX60O1e15JZycnKQn58vqE9YWBg8PDwkquhBRqMRN28KO53X19cXGo2wF2aNRiMyMzMtbq9Wq+Hn5yf4Gpb+WVQqFUqVkval6fz8fOTk5FjcPiQkBJ6enoKuodVqBX1/BQUFQaGQ52ZSYWEhrl27hsuXL+PatVRcvXoVFy5cwLVrqY+0jYqqhCpVKiMyMhLlypVDVFQUIiIiHDKkHK8ioofs3r0bixcvEdRnxozpqFu3rkQVPejw4URMmTJVUJ9hw4bg5ZdfFtQnLy8P3bp1t7j90KGD8corrwi+Ro8evSxq6+/vj0WLFqJ06dKCriHE6dOnMX78hxa3X7duLQIDAwVdY+/evZg//3NJr2GL/Px8JCWdwr59+7B79+8oLCy0qN+lS5dx6dLlBz6n0fihTZs2aNjwP6hevTpUKpUEFQvHICKXtGBBPBYtiodGI2xGIFROTg7i4xdJeg1HlZOTg7i4eZg+fRrUarXc5bicjIwM7Nq1C2vXroNOpxNlzNzcPKxf/xPWr/8JQUGl8M473dC0aVO7BmtxuFiBXNL169exadPPkl/np59+wo0bNyS/jqM6efIk1qxZK3cZLiUzMxNfffU1evTohRUrvhEthB69Thbi4xejW7fuWL9+PfLy8iS5jiUYROSyVq78FhcvXpRs/PPnz2P1av4QXrv2exw8eFDuMpxeUVERdu7chb59+2Hduh/sdl2DwYAvv1yOgQMHIzEx0W7XvR+DiFzaF18shV6vF31cvV6PL74Q9tzKlc2cORvXrpV8vhMVLzMzE3FxcxEXNxe5ufLMTK5fv46JEydjyZIldp8dMYjIpZ08eRJ79uwVfdxdu3YhKemU6OM6K51Oh1mzZkOr1cpditP5559/MGTIMPz++x9ylwIA2LDhZ0yY8KFdbzkziMjlLVwYL3h59ZPcvHkTX3yxVLTxXMW5c+exYsVKOOgRZw7pxImTiI0d6XDPGc+cOYtRo8YgOTnZLtdjEJHL0+l0WLnyG1F+QJpMJnzzzbeSPUB2dj//vAl79+6TuwynkJSUhLFjxzns99L169cxevQYu9xyZRCRW/jttx3466+/bB7n6NGj2L79NxEqcl1z5sTh8uXLcpfh0C5cuIAJEybCaDTKXcoTZWZmYdKkybh585ak12EQkdv4/PMFNj2EzcvLw6JFi0WsyDUZDAZ88skMQTsiuJPbt29jypSpos2EIiPLo2XLl9CpU0e8+ebr6NDhVdSvX0+0d7uuXUvFp59+avGLtNbgC63kNlJT0/DLL7+gc+fOVvXfsGEjUlPTRK7KNV29moxly5Zj+PBhsm2H44gMBgPi4xfZNMNQKpV49dX2aNSoIaKiouDv719su6KiIqSmpuL06dPYvHkLzp07b/U1jx49hh9//BHdunWzeownYRCRW/nqq/+iQYMGqFixoqB+ly9fxrfffidRVa5p+/bfEBMTjdatW8tdisPYtWsX/vwzwaq+CoUCvXv3QqtWrRAUFFRie09PT0RGRiIyMhItW7bEyZMnsXLlN1av9ly58lvUrVsX1atXt6r/k/BXFXI7X365DEVFRRa3NxgMWLqUq+SsMX/+5zh/3vrfxF3JzZu3BO+ZaBYdXRNffrkEnTt3tiiEHqZQKFC7dm3Mnj0LgwYNtKoGAFi69EtJ3stjEIkosl4DvL1sNSLrNZC7FIegad4G5b9wvFnEkSNHsW/ffovb//HHHzh27LiEFbkuo9GImTNnITs7W+5SZPfjjz9Y9Vyobds2+OST6YiMjLS5Bi8vL3To8CrmzYuDr6+P4P5JSaeQkHDA5joexiASmTmM3DmQzAEUOng0lOERcpdTrIULF+L27dsltrt16xYXKNjo2rVUxMcvgsFgkLsU2aSlpWHDBuF7H7Zr1xaDBw+Cj4/w0HiSmJgYxMXNsWpBw3fffSf6rIhBJBF3DCRnCCCz3Nw8rFq1+oltTCYTvv32O2i1ws5Cokft3bsPW7dulbsM2fz22w7BfZ57rg769+8PLy8vCSoCnnrqKUyZMklwv6tXk3Hs2P+JWguDSGLuEEjOFED327LlF5w8efKxXz9+/C9s3brNjhW5tvj4xfj77yS5y7A7rVaLn37aIKiPUqnE4MGD4eMj7fEazz33HN59t6fgftu2ifvvgkFkJ64YSM4aQPdbuHBRsadzarVaLFrknucMSWnmzJkW3RJ1JSdP/i342VCfPr1Rrlw5iSp6UMeOHVG2bBlBfRISDoi6bRaDyM5cIZAcOYBKlw5/7HsVxbly5Uqxt4w2b96C5OQUi8d54YXGFrd1Zzdv3sJnn30uycorR5WQIGy5tlqtRosWLSSq5lE+Pj7o27eP4H6nTom36S+DSCbOGEiOHEBm5cqVxfDhwwT1Wbbsqwc2d0xJScGKFSst7q/R+Fn1D9kVdOjwquA+hw4dxsaNGyWoxvHo9Xr88cceQX26d3/H7iem1qtXD6GhIYL6nDjx+NvaQjGIZOYMgeQMAXS/Ro0aomXLlyxubzQa771bVFRUhC+/XCZoD7DY2FiEhoZaU6rTa9CgAYYNGyK43/LlX+P4cddfEp+SkiL4tlzDhv+RqJrH8/b2RseOrwnqs3fvXkHv4z0Jg8hBOGIgOVsAmd19A703NBo/i/scPpyIAwcOYO/efTh06LDF/Zo1a4pGjRpaU6bLaNu2Ldq1ayu43/TpM5CRkSFBRY5D6JZQFSpE2u3Z0MPq1KkjqH129h1kZmaJcm0GkYNxhEBy1gC6X2hoKIYOFfab+oIFCxEfH29xe19fH/Tr19ft91JTKBTo27cPoqIqCeqXk5ODuLi5DnsMghjS068Lat+wYUN4eHhIVM2TRUZGCv5ezswUZ+GJe/8LcmByBJIrBND9mjRpgubNX7S4fXb2HUHHNA8fPgxhYWFWVOZ6NBoNxo4dA6VS2PaVJ06cxNq1ayWqSn4pKZYveAGAihUrSFRJydRqNWJiogX1uXVLnOMhGEQOzh6B5GoBZKZQKNCnz3tWbWVSkoYNG+CFF14QfVxnFhUVhZEjYwX3W7Pme0G3Q51JVpawrY2Cg4UtGBBbVFSUoPbFvfpgDQaRk5AikFw1gO4XFhaGwYMHiTqmSqXCgAED4OnpKeq4rqB58+bo1Kmj4H4zZszEtWupElQkrzt3hJ3JJPULrCUJCAgQ1L6goECU6zKInIwYgeQOAXS/F198EY0bNxJtvGHDhqJ06dKijedKPDw80LNnD9SoIeyoAJ1Oh3nz5on2G7aj0GqFHcQo9y833t4qQe0LC8V5H4xB5KTMgdTvlz2I6fBGie0VfhoEvNzJrQLIzNPTE++/3w8qlbB/ZMVp0OB5vPhiMxGqcl2+vr4YPXqU4A01k5JOYeXKlTCZTBJVZn9+fpav3AQg+4u+BQXCTmFVq71FuS6DyMkFli2Pth/NeWwgKfw0COrcC+W/+A7BfQa5VQDdLyIiwuZbdEqlEv379xf8QN4dlS9fHmPGjBLcb8OGn7F/v+VHdDg6Ibt8AEBubq5ElVhG6HEd3t7i3EpkELmIhwNJqVDcC6DAt3tA4aeRu0TZtWjxEurXr2d1/6FDB6NcubIiVuTaGjdujG7dugruN2vWHFy5ckWCiuwvKKiUoPZyv1d16dJlQe2FvKv3JAwiF2MOpNY7DzOAHqJUKjFw4ACrZjR16tTGSy9ZvlsD3dWly9uoU6e2oD4GgwGzZ88RtJTeUZUrV15Q+9Onz0hUScny83VIShK2O7pYO4owiMitlC1bFgMHDhDUR6FQYNCggZKdC+PKvL29ERs7XPBvzhcv/oNly4Qd6e6IIiKELWrZv/9P0VaiCZWSkixoaysACA4OFuXaDCJyO23atEbdus9Z3H7QoAGoUEG+Fw2dXUREBMaPHye437Zt27Fu3Q8SVGQ/ZcsKu5Wr0+lw9uw5iap5MqF7/1Wt+pTgZ2CPwyAit6NUKjFgwAcWbWfyzDO10KZNGztU5drq1auHPn16C+4n5g7PcihXrpzgF6p//vlnu68cvHt4n7Ad0cU8+oRBRG4pMjISH3zQ/4lteEtOXJ06dcJ//uMYG/rai5eXF5o1E7bcf//+P3HhwgWJKirevn37BR9Y+PTTT4t2fQYRua127dqiVq1aj/16//7vo1KlSvYryMV5eXlhyJAhoj1XcBbWvEz9ww8/2m1WpNVqBZ2/BdxdLVe9urCXlp+EQURuS6VSYejQwcXeoqtRo7pVRxvQk4WGhmDSpA/lLsOuYmJiBL/cu2fPXiQkHJCoogdt2LBB8Gzotdc6CP4zPQmDiNxahQoV0K/fo6erDhkyGN7e4rw1Tg+qWbMm+vd/X+4y7MbHxwdvvNFJcL+5c+fi6tWrElT0P4mJifjmm+8E92vatKmodTCIyO21b98e0dE1733cr18fPPXUUzJW5Ppee62DoCM6nF3r1q0F99Fq8zFlylSkpQk7XM9Sp0+fxrRp0wX3a9nyJdFvWTOIyO2pVKp72/9Uq1YV7du3l7ki1+fp6YkBAz5A2bJl5C7FLiIiIvD668JnRampaRg7dhwuXrwoaj2JiYkYM2YcCguF7S0HAK+//rqotQAMIiIAQOXKlfHee70xdOgQUe990+MFBgZi3LixcpdhN2+++YZVZ2Olp2dg8OCh2LZtm82bomq1WqxatQoTJ062KoQ6d34LVapUsamG4jCIiP719tudUbVqVbnLcCvVq1fHsGHCjnR3ViEhIYJ39TAzGo2YP/9zjBo1GkeOHBUcSDqdDnv37sXgwUOseiYE3N037803S97p3xrcRpiIZNW2bVucO3ceW7duk7sUyTVv3hyHDydi7959VvU/c+YsPvxwIsLCwtChQ3tER0ejXLlyCAgIeGD1Z1FRETIzM5GcnIKTJ09g06YtyMkRdkjfw8aPH4fAwECbxngcBhERyUqhUKBv3z44c+aM4N2fnY15493Tp8/gxo0bVo9z48YNfPXVf+997Ovrg5CQEAQFBSEzMxNpaddhMBjEKBkA0KdPb9SuLWzzWiF4a46IZKfRaDB27Bi3OOspKCgIM2ZMF22fNuDuCrvk5BScOHESyckpooZQ27ZtJFmgcD8GERE5hKioKIwcGSt3GXZRoUIFTJs21eGDt1mzplYfnSIEg4iIHEbz5s3RqVNHucuwi5o1a+Kzzz5FYGCA3KUUq02b1oiNjbXLi90MIiJyGB4eHujZswdq1BBvHzNHVrVqVcybNxcVK1aUu5QH9O7dC8OGDYWPj31eZWAQEZFD8fX1xejRo9zmfa7IyEh8+ulctG//itylIDAwANOnT0OXLl3g6elpt+syiIjI4ZQvXx5jxoySuwy70Wg0GDx4EKZN+wgRERGy1NCpU0csXboE9evXt/u1HftJGRG5rcaNG6Nbt65YvXqN3KXYhYeHBxo0eB61asXgt9924Ntvv0Vubp7k123UqCG6du2CatWqSX6tx2EQEZHD6tLlbZw6dQrHj/8ldyl24+vri44dX0PLli3w558J+PHHH3H1arKo11AoFHj55bZo164dqlSpAg8PD1HHF4pBRORELDne3EzuHy5i8Pb2RmzscAwePNTmnQEex8NDIejvFbDP36tGo0GbNq3RqlVLXL58GUePHsP+/ftx5sxZq8bz9fXBiy++iPr166FWrVqivsdkKw+TvQ9HJyIiq2VnZ+PatWvIyLiB9PTrSEu7jvx8Le7cuYOiIiPUajU0Gg2Cg4MQERGB8PBwlClTBmXKlHHY95YYREREJCuumiMiIlkxiIiISFYMIiIikhWDiIiIZMUgIiIiWTGIiIhIVgwiIiKSFYOIiIhkxSAiIiJZMYiIiEhWDCIiIpIVg4iIiGTFICIiIlkxiIiISFYMIiIikhWDiIiIZMUgIiIiWTGIiIhIVgwiIiKSFYOIiIhkxSAiIiJZMYiIiEhWDCIiIpIVg4iIiGTFICIiIlkxiIiISFYMIiIikhWDiIiIZMUgIiIiWTGIiIhIVgwiIiKSFYOIiIhkxSAiIiJZ/T+sNpFy5bbnlAAAAABJRU5ErkJggg==;" parent="XY3Dx2JAYwhzfvwpX6yY-17" vertex="1">
          <mxGeometry x="90.21015630842867" y="14.799999999999999" width="66.62524999521462" height="50.21162702704166" as="geometry" />
        </mxCell>
        <mxCell id="XY3Dx2JAYwhzfvwpX6yY-25" style="edgeStyle=orthogonalEdgeStyle;rounded=0;orthogonalLoop=1;jettySize=auto;html=1;entryX=0;entryY=0.5;entryDx=0;entryDy=0;entryPerimeter=0;" parent="1" source="XY3Dx2JAYwhzfvwpX6yY-7" target="XY3Dx2JAYwhzfvwpX6yY-13" edge="1">
          <mxGeometry relative="1" as="geometry" />
        </mxCell>
        <mxCell id="XY3Dx2JAYwhzfvwpX6yY-32" style="edgeStyle=orthogonalEdgeStyle;rounded=0;orthogonalLoop=1;jettySize=auto;html=1;exitX=1;exitY=0.5;exitDx=0;exitDy=0;exitPerimeter=0;entryX=0;entryY=0.5;entryDx=0;entryDy=0;" parent="1" source="XY3Dx2JAYwhzfvwpX6yY-26" target="XY3Dx2JAYwhzfvwpX6yY-1" edge="1">
          <mxGeometry relative="1" as="geometry" />
        </mxCell>
        <mxCell id="XY3Dx2JAYwhzfvwpX6yY-53" style="edgeStyle=orthogonalEdgeStyle;rounded=0;orthogonalLoop=1;jettySize=auto;html=1;exitX=1;exitY=0.5;exitDx=0;exitDy=0;exitPerimeter=0;entryX=0;entryY=0.5;entryDx=0;entryDy=0;entryPerimeter=0;" parent="1" source="XY3Dx2JAYwhzfvwpX6yY-51" target="XY3Dx2JAYwhzfvwpX6yY-13" edge="1">
          <mxGeometry relative="1" as="geometry">
            <mxPoint x="197" y="353" as="targetPoint" />
          </mxGeometry>
        </mxCell>
        <mxCell id="XY3Dx2JAYwhzfvwpX6yY-54" value="" style="group" parent="1" vertex="1" connectable="0">
          <mxGeometry x="15.29" y="374" width="138.71" height="80" as="geometry" />
        </mxCell>
        <mxCell id="XY3Dx2JAYwhzfvwpX6yY-51" value="" style="verticalLabelPosition=bottom;verticalAlign=top;html=1;shape=mxgraph.basic.rounded_frame;dx=10;whiteSpace=wrap;fillColor=#f5f5f5;fontColor=#333333;strokeColor=#666666;" parent="XY3Dx2JAYwhzfvwpX6yY-54" vertex="1">
          <mxGeometry width="138.71" height="80" as="geometry" />
        </mxCell>
        <mxCell id="XY3Dx2JAYwhzfvwpX6yY-52" value="&lt;b&gt;&lt;font style=&quot;font-size: 14px;&quot;&gt;Scrapping&lt;/font&gt;&lt;/b&gt;&lt;div&gt;&lt;b&gt;&lt;font style=&quot;font-size: 14px;&quot;&gt;&amp;nbsp;de&lt;/font&gt;&lt;/b&gt;&lt;div&gt;&lt;b&gt;&lt;font style=&quot;font-size: 14px;&quot;&gt;&amp;nbsp;commentaires&lt;/font&gt;&lt;/b&gt;&lt;/div&gt;&lt;/div&gt;" style="text;html=1;align=center;verticalAlign=middle;resizable=0;points=[];autosize=1;strokeColor=none;fillColor=none;" parent="XY3Dx2JAYwhzfvwpX6yY-54" vertex="1">
          <mxGeometry x="8.709687500000005" y="12.99909090909091" width="117" height="62" as="geometry" />
        </mxCell>
        <mxCell id="XY3Dx2JAYwhzfvwpX6yY-63" value="&lt;font style=&quot;font-size: 20px;&quot;&gt;&lt;b&gt;HomePedia&amp;nbsp;&lt;/b&gt;&lt;/font&gt;" style="text;html=1;align=center;verticalAlign=middle;whiteSpace=wrap;rounded=0;" parent="1" vertex="1">
          <mxGeometry x="424" y="22" width="246" height="30" as="geometry" />
        </mxCell>
        <mxCell id="taqw3ctyN8QEC7KTtnxu-1" style="edgeStyle=orthogonalEdgeStyle;rounded=0;orthogonalLoop=1;jettySize=auto;html=1;exitX=1;exitY=0.5;exitDx=-10;exitDy=0;exitPerimeter=0;" parent="1" source="XY3Dx2JAYwhzfvwpX6yY-13" target="XY3Dx2JAYwhzfvwpX6yY-3" edge="1">
          <mxGeometry relative="1" as="geometry">
            <mxPoint x="368" y="401" as="targetPoint" />
          </mxGeometry>
        </mxCell>
        <mxCell id="taqw3ctyN8QEC7KTtnxu-4" style="edgeStyle=orthogonalEdgeStyle;rounded=0;orthogonalLoop=1;jettySize=auto;html=1;exitX=0.5;exitY=1;exitDx=0;exitDy=0;entryX=0;entryY=0.5;entryDx=0;entryDy=0;entryPerimeter=0;" parent="1" source="XY3Dx2JAYwhzfvwpX6yY-3" target="XY3Dx2JAYwhzfvwpX6yY-35" edge="1">
          <mxGeometry relative="1" as="geometry" />
        </mxCell>
        <mxCell id="taqw3ctyN8QEC7KTtnxu-6" value="" style="group" parent="1" vertex="1" connectable="0">
          <mxGeometry x="573" y="121" width="107" height="69" as="geometry" />
        </mxCell>
        <mxCell id="XY3Dx2JAYwhzfvwpX6yY-6" value="" style="shape=image;aspect=fixed;image=data:image/png,iVBORw0KGgoAAAANSUhEUgAAATgAAACiCAMAAADiKyHJAAAA0lBMVEX///88Oj7iWhw5Nzs2NDgmIykjICYoJSstKzAzMTXgTAArKC3hUQAxLzTgSQDhTgDiVxT4+Pi8u7z19fXj4+N2dXdEQkacm53v7+/c3NyKiYvhVQ8fGyLGxseWlZeFhIbU1NRbWVyfnqBzcnRIRkp+fX/My8ywsLFramxSUVT429Hnflf76eNkYmW3trePjpD98+/zwLDrl3rlbj+rqqvjYSf0x7j318zqjWzlazrws5/toYj65NzphmPxuKXzxLXmd0zvqpPrlngOCBPlbDwAAAgqAWhfAAAW3UlEQVR4nO1daUPa3BImZieEHWUnIGstaFvUVq3F9r7//y/dk33mnMmCrTvPh/t6Q0hOhlmfmZMWCh8QFzdnl5c/v7z0Mt4c7oul6tFRtVK6eumVvC18LR4FKN++9FreEm4juTHJPbz0at4OrstHAOWDteZFrwoFd1S6eOkFvRE8lJDcjnpnL72iNwJObgdjzYkvFV5w1aOXXtObwFmPF9xR6ZCTZKMmKJxrrJ9felmvH9eU4Hq7l17W68eNEBtcFH+99LpePb6LLs5zcy+9rlePH1VacF9femGvHDXSUt34cPfSS3vduCsmCK767aWX9rpxBYIqrlkrB1YzDaBQ7X3F/u5Q7KfhZxxUK1efEL9U+p357Yur291Rqbq7/fQMS31dAIIq3hV+o1BRThVH7fr2R7nimXe1VN59MPW8AC6uyP4vElz1R+L3Pt3sipUSsOze5TOu+hUAFFxeGMVUSeWe+s7d/VmpWOLTvw+W+N2D2OC5tG84PtS48y++fD8qlshi42PVGl9jGZQ89bpLjg8sElyWaaF5lv6hvBxQsMq1d+QrHR+uH74FkeAgOBdASuUL4VAQH+5uznAkIFF50Qd5ZnwGBVfoo36hIqy3+15JcGoYH6vFAwqu+MF3SLeqOYTmovihOjyg4Ir7DJ+T6v40pOR87xGAxazEnO9tEtWUgvL1Cz7G8wOaGuDfjrICgYDKB+uLgaStAnLdq0xj5ST70Zo7gMWsolpzlxYReqzg4gLIEV9hvHP8AkH1O/zgc1kQVyCiUrF4dnPHtXgqH60NC6JA6SbpEyC0SnH34JUSD4gL+GCBoYCmHyrcw3O2Wu1Vij9ur4Pi4gseqPt4HDtQqyJnbTA+MKd2+fsqLkU/odjx0QJq4eILbDH0+I+D+MCcWunnPZLqZ2TGpZ/Pt+RXgM83uzIs28VmIIsPzKmVdzcCf34JI2rvf8+z4FeBu4fLMkd29ER7eygzp0akGd+g+6tWPwyZdH3bE3nvoxLh4GmRfEeGyrvG94qr36UimdsW8/b3HlBg+BCJyMXVz1IlqSLIS9/+QolI8Sb7G28cF1/OKolS4wuuZHCJyHtvbF3c71KaLC5y0rcXyDm+c8738803PoQK+lYq57M5lIjk1dK3iV95pHb5kG8WDnEm1fc8k/OlV0mXWq9U/naTN6PAicg7Hjz8/D9qoBxIrVI8+5JfbbhE5P32Zj6l2mivUvp5tY+xXeFE5P1uzvycYqUsC/69Z+qKR15L37O/8VaRME3u0h1Ht3sn/Bdo+uE9txjofosXQh8zPXmJAup7bjEQ+z6q+4RQjLOP02IgtG23RwjF4CZc33VlLzZbSg+Plds9CqjPNcZf63Q6bXSk7YF3E212nuA6OoO6Aw661wo/gVdtdgLEp16KsaFUPHtc8oWmNKu7R11jf3T7ar+LjpiaC/0Ui3OlqX/q6Ej73FYtS1UH0ZHBH/WP/1etr/43j44rmu5CVeMvf6WK+mqlevsI/4QHg4XuxNOg3ZckZQyPNDTJg2k1wNGBKkn2EJ5XV23vPCsW58RW1v5fTVXSI8E3DP+K4YcurhOmGErl3f5qh9S39Dwk3MxkTyTDI44uyf2+Kkv2OTh6LLMHX4IDEyZxQ1MMte9Ex1pK+J26JUvR4Y4qyRbTOKTZ35LyX1Yz7Kt2OLcRJqqfAp2+pEiSCq1yYchTpolTWQaKuLHYeTIQ8KDPhLFlS2yum9HBlWxs/L9ObKBedUM+Fu58lzTF4Kndt/3UDmXTz7Jjf6koy2PJGoBDXVOZsf8MbXkVH5Rl5VQG1lczZVnGTpAdtCQ98P+nCrDroam0xFvfp0jOff3U7R70Bjb8ytMTSo4maZ2lYk/AsbFsb9l/1opyGh2bGExoTHCRv98akgpipA9mklrwpyIbsevjbhDiIU1ybpDd5U8sEBX3+L0gDWczOR/NRsPtvJF64lhhgeEcKwRzbttOp2tI1ia6nu06PGaI2/DISgZiDVE3JHnlQ4ZyZUHkeDqdShvu/PtyBodZKX3NqXZ4e9zjmoLz7lTTDdtksA1dGy+SfSULlarjOjXggtosqNq6bkpKfHBoS1qDxRFzFByo6ZKBc5PgNOYHPbBgG922rUrecXYrDnf/yyAyy2d5re4nVLne/uRIe2jrpiwBKIZ1knT2VHYDpWNJIPOYW+63ZMU6jlxYW5dMdo2t7UYNDyzbsOb81ZhJSrblgQWSaXTYDdNuGvcfof2/LovJousFr9lLtxofONbsS//WRn1bEmGYA/J0Firl1XjM7EqP7WpiS4piyutFfN7IDM8LM1hXcOI1j2X7ZOBifqoA62caveo4DOQirndlusFVLft60x7Tq+eAWIM9G1wL3STE5uqP1qXOd1XTtysjdj/MIM/xaU1NCs8LHRczVS/0IjDFVIPUZA3DwSg2cRJ3v8vEmGDpyK/VF2q/mfbtEBdY5fbgpmpLlRabl94vxS+wyKgEhgVy3alsLPB5pwqrIlzIsWNbK2GIjXWVmaQV/KlDhRwLV+Rx8cB3barBKx2bY0tS8yW0aEhzj4q1eUxZaQR7zX+BZV3Kcu4bVpzr1lji4aDzOhqTq3feVI6SswHTQmvoOJt1rHiuSfp/sQCjxWqiSeb5Yrvd8kEV4csPODRSuvQ1ZqKy9NzOJ4CLx02NdGwlTW7MGnnTckOlry5bO1IVNxezcGI7VmTF/4t5rkhxT1n9aeq6YcUm2Y1MkgWY+GmZP5RMwzBUwbYxrneh6KpBq6WzcotceZz+vQjoBX15d9I0LTldbpKk4yS03VfswIEPVCXyI3VdQZVrYd5X9CB9GxpKJODCqeb+UnI/zkpWphWcuLXM+GkHmuJBj5LAJNz9LrrPXvnmx8RzzXumdAcJgUiSfHu3Gkam3CRJc+BXJuP1OJBWk/0ZJheT1Rgv9HS9Dq28Pl6vYm0cLFVNmw7jXIFdJbjDcDyOU6D6suVhiW5P4+KhVAnGHZzjgFMhqw4S6P1V+SYgphl26kG28yRE++ApaAi/mVqb9UNVIDLtJODOA7lhH2OWGhciKEKAeK0Y2HFixcUqH3ROf4+MtZp9Gy2X3CTpT2pgez04VYHn0XkShmHploN3pa98r38/RrOmcA5OMXRVN4RkWFYz3fPrwLwPl01kIyOr7/6nUqpU8NT5L6RyWYxmFxuqoi43Tsepz7g6wj4WeKBXioUBf26RAz0JShSXRK6Wir3vcV9xH0azjQ3VXoXyac9gKaESXOIrxRBqgiLUPAs3+XYLk7A87ZXcyX3vM0yip08OnyPFsqF8FpFM5f4bcW8uTmGOYHOVs0vaBzkKSD/cvSLurkG8YT+d0YR6zTWsChstNNNchfIrwQr6bINzzI7nAD3yhXthq7tP9TduO5ZTVG6uQ8HxfPbQE6uWUe28MqBYx9FXTV8VPLqP2LXawxRVL+VNaSfQIQD6MAD79RT9DZkpQwOxPFgV2iFL6zU3sl9qkKJyyCGIKW6nb0xzmmmtQUw+5EfbqW8nk8m27hCJ1z7oIBvSYbnTOFagPHeZLzVIGSQ5hootalyhm8dMO4vR+NhyJx9UaTza7O0Qncla0XTLsG3bMHRNOl38hfAGFnwiCX60irTEK8TIOQpsq8ndB3gX0cflQb1lq4YpBz+ALJuGtprs8eBO11QxqSUrhrbMRXg72/NZ63TJcMrgf2WLnA9o7hbWcQLhMYP3mbaa8u5WpNd8VM1Gs6tZIkMg2/1ZTrWrTzWSsFfUqdjOweh0ddWwTSWE5guuC68HGfoWSCC89I58DzoWXDItx63aILsLiUtf9hPaFJLZH+Xwd3UpmQiUtWWa3jaFewcdizVK4+JyvotM2C0oLtJb2kepFPqKW7iWP4S2Z1oaHWUbWdbWWempPKCZcoWteO+guYC8dtxGmqBga3l5cS9l45zv45LzkRmvMpivTEFiUyyErKWTrwFFm3qFpJ7uUhdP9qvSGiq9o6mLDaosDX+OoHb1ndoWHKOSzANvDXx7STZyOfbGWly6AGOcbK7tFX9nCirpOmorgkEM/HMbaVbY9JkjudmggP10e5kou7R/pKUjNAVlKYdzcpQMdfNhTpNY4zkRUyhYlNaOqZubfhzApVAwSYGf0uTS1bubHb3bNXVjkiTYi7JKOd1HPdPKwmuJmaGHRT/nBSR9KHy5RTLWQXNhg0gl//ZN1FMxiee7+PWzKMiumMorTUSLsbOSkklf+E4STPJak7ykM0Ofbxps6C8HcQDVkH4p1JCh3JRpgkVdf0UOr5rx7xQ2CF9lE437Rz62ZIkaw0LiHheQNOx0Gwm+MWguoGjn9wZRLypRbi4+PfwoV0q9atXdsJnVkx4SCzHSaEv6sWVFkUnzA0O+AeqUwsomK7hsnsb3HhUrbTehtRTIF+VX3owj8oiKlNGru7i6/bnb/bzJMbAkerkEn+xjID42K5GU1Xo9PtYt0W3LvEtxhAvIpm6PRyeTybA1VcUeL6JnGhb/cXiW/zkSqzvSfopKMOUvKQSIOaVBVlIJ0RRM29aXiyDqNwYzQ1AIjpZqmJxkZEs+j/eJtBcr/g5w6hp3FBgUT1Nt2/DTOCxXvVMYoYLB+KeM7JD6EVXCN7mYco9t27iib5yoXKLB9UvWfJUn8d6/zg+yWGBcCVVUkqIvhwF8qreJ07gaKhhk/R8z2UvKbWjk7MAInyr3h4KvbfPpqQ4rp4XOXYBoOjZWWLiQ7kLXtte85Q2wEmxTWM1/gRWVjWrEIzlcT4xmOVvYnOCgdFvPcwF+QfH8L9IoYraAq4SQmHNXk/lRowIEVfBjQ7XE0XEfXIoKZoRbSJeMpLyngcNrPOU5hxqliVI/Tx7n6GfxVI9B2yYlx7MTC2QIKaEXa0zcMengmjFJ8P7mrxixm4SxQYjXBa4VgOWWf/pmH3RIhodXbiReO4VVxz7ajAINcu18zYiAg0C06wnSlCaxgOOkUu7JOsNkUsKFIZQKpJe0qM8dTUUihZPlNDbBQaKP6CEoT2r0LakY5Pur/xB0Po9SCeQJtdRUEk9WhJMvIyhOLd3nTElCElYnxOhbO6GYo6z6n2FBSQ7ORMyhEhgZk47I2YSzVvCxzIxplAl08yEFXoNLIEbfnCSW0HrK5vCEGtjX4p8V1s+ymXExRO8E7YA6jC39jOIH9UfNoJBBvpPQ+XoiO5p1u79ClyghZCXyRHBRmT6jSehGC2ghtZUSA14ADKQDwYnfmSRmIzlYxr/AjGJKQptEZqBnDgQjwfnuDF6dHDFFgDxHKDiox0T7XGyhgOdIqCH/DYjiKzJK+GuKY2cC4HP7W94Qga1kXgDqZzitBWffiJ2bXBKD8QSFAwBB54evG1iCRWXtEirg5/bVC2Yz2ZaKUrYwOMwIYUJgShAndbmaKY9GTRzdD39ZuIwc5TL88f3thTAZyZFXQe0KfyioxsSPV0OJgeXgCtF+0qnSNk+XhVlYA+YSdvaPB5M+P/GHoiT2q/KAggu1HsYGYucmRyq1OU5CfdKBtaaQlPjqBWMDMZLMA/34fpduT5WF9XoQStCPp4olPgq6Ul/g2dWnzEnEfQ/+T7vJKK85IDn7w1bwIYin5gEjZHA6Ci+qGNjxwLl7V+zmnjYnEdo3vjOBlpNjSx6KwZ5zQVl/DsHBYBQQU4imNIiVCwPnXAn+tDkJP4njF9OwhsqhcciNe5GgBp8hO41DxWqQvECakvrxUJ3nVxscZS323P4lMDMR5AJQEnjQkUITeSPPoSHB5dibBm09EBJ0exSpRAyc1+RnzEk4lfM0robSFGqHFAJMwsIuFfQAVBKGAYmOsHCAGmUTk0y4N+hHXc5Y01jEfdAkSyc0R+BzOpiwIVIBBNRasIMKHSYoVL2EAQNBKKRpOqmEgm4UuLnNkdq/YIIb5/+RJQCiNvxKExM2WYk/ai0EW9ALY6jHmfkIDAShkFC17Ahf4QbOA6uocW0B669zktrEsumMjBOceyeOsEm3VdQxiCIJHuvISuNhIAiEhLSeyMlwbzDaN4j7F/sPOvNYKO7SLEpzUa/Ily223oggI9HEcg/vgFt3WobKwTUEQkJaTxQvSQPnuLUmJb+7Jw/qx/7cMulsUNoYhHWu+k957gai2OMb4PG+lJSm7RS4QOALCWo9ZSpJA+f81EXWb5aCeTy3TJDKGzyA4ZWVY66ETa662se4QRXHEay0ifGt6b1UAkT28F4oqSZaZHjgHOS6dWys2dlUAjpjMFEpm3xgbVvEXYSWNT0yyOwJT37AB+S0NmGwZ+BvYDbEa0AnSfkKur/j4pTbtfyonKS57ONH4yTQxl10nwEmxvnsFZXKnHBDqpDr5xJryVoS2eio7+V9KI0LhIR6gyIvVUNrRPwLv/xH5SQCy4vf/zPgWtN+mShyJkzitnD7+ZRbIX7PCj/qZJr8FRam7ReZMBCEQoKulyKVcBqHquE6/5s9IieZCy0Z89gJP+zw76YyThK+JLn9avyOscFY5SWDKfa6MPqmTzex3jrntjtW6NUJsCMWCAmzBKKDx6km95qUJSZoH/UuEJGqlNXxotNuOtuxMNwWlNcbuu8mW8qs3mnUao3OZqYI+4uEypBXOXfWzxoPF/X64mSp6L4teAoGA0HwfjrcOBP9BB4454JXg1e53G/AiTEkemiyoWuqLr6aKnQG1Hf8L5rsm5alES/cYGLlySOH6rQrtmFZRnxvL7WEgSRI46DWy3JBADFwDsXKafsjcpI21XimYYadpJS+WzKIIYdR8hhWBE/BYCAIhJQ1qYQrEyHqch2wHCy2gFZeKcTdaH6zXB70KSYgx3ucPAUDgSAU0lDgRjHwwLlgitxM42NykmbefQaxOud7/RICPZDWzn5zmDs/XgNPGbbZUC1BULko1SRKyQVvrLk2EyOc59mABq+cOCSfCDlpGKmTtZ3Jq9FgIAiFlNEb5AbOHfHWfLva2v/9ZInzdxAgS6TSuFSYUmJTweFzFg6eFcJAEAoJPjbRXuxwvUHxzryxRgGkOTofdkeFetf90nlay7eTbawyKDL5NwRkQqdqgujm6e+V9OY3YSAIhNTOaPZgUokcsdhykgvfkdieb1RnXjh3c5S5mko7EftjMGwZhmsU0KZZdmta6RMS7XHaFTwFg4Eg7A0iGpMglVAaR3MvY+4ni5x4030L5fkJq8uXk3S+rp668VHWTtHKUHO4WSd2HsVQtFZmPTOhX2Hgy8nVdDR54i8FahSVSyASkZrIKfj/cAd6zuhl2J7gFrN5Y+pkEJ0OkbGGl7MkLuDAgKY1Co1ZP8nazP46T2bZbiW8B8HUvM3BBKkEaUqKxcW9wYQG6pbTdXsEBbd1TheLLMEVGi366RVdEiwNBhNvt1mz1Scm/BVLH+VNyJtdy+KKP9m0rJnjfcrqmBD94EG6qh1BJ3IwTColOQt+L0yQOQSCKxxLhXk2te4s+adnSyfflQI0POxxtidTDb+oRbVb9b26loOZpFn+q0O8V/lPu9GtmwCB4S9OYgypNap6jD9JQz1Nu69B9P94HrT5H/uf0aQwaRUGmQ049/zJ2NLB0o9ndSq3QeRY/GM3N92x5L0ayDgejxaPIaTb8+1wdnra6k42zr9+62sCahANBu9ow/vEfVVsLec6as7mpNtiSz9ZJL4PCpFjXKvDfRlV4x3/a31/Bdgl2ePFugdMxFG1A/IAkmOZYyMHxIDVMTGWdkASZDEdPSAPQBqXY4fDASEgqZQ6NHIABiTHiEbwAUlA5Nj+fPPHxVDscR6QB5CwOaRxewCOeGXv+jsgAuwN5+FcDvABh7kTKOkDKHT+GBG0zP0JB0Ro12Ps/yLzd4P/A601tMj0tfrwAAAAAElFTkSuQmCC;fillColor=#dae8fc;strokeColor=#6c8ebf;" parent="taqw3ctyN8QEC7KTtnxu-6" vertex="1">
          <mxGeometry x="15.760955196426226" y="14.948101819628125" width="70.07059009682546" height="36.383792428440906" as="geometry" />
        </mxCell>
        <mxCell id="XY3Dx2JAYwhzfvwpX6yY-26" value="" style="verticalLabelPosition=bottom;verticalAlign=top;html=1;shape=mxgraph.basic.rounded_frame;dx=10;whiteSpace=wrap;fillColor=#dae8fc;strokeColor=#6c8ebf;" parent="taqw3ctyN8QEC7KTtnxu-6" vertex="1">
          <mxGeometry width="107" height="69" as="geometry" />
        </mxCell>
        <mxCell id="taqw3ctyN8QEC7KTtnxu-7" style="edgeStyle=orthogonalEdgeStyle;rounded=0;orthogonalLoop=1;jettySize=auto;html=1;exitX=0.5;exitY=0;exitDx=0;exitDy=0;entryX=0;entryY=0.5;entryDx=0;entryDy=0;entryPerimeter=0;" parent="1" source="XY3Dx2JAYwhzfvwpX6yY-3" target="XY3Dx2JAYwhzfvwpX6yY-26" edge="1">
          <mxGeometry relative="1" as="geometry">
            <mxPoint x="440" y="158" as="targetPoint" />
          </mxGeometry>
        </mxCell>
        <mxCell id="taqw3ctyN8QEC7KTtnxu-12" style="edgeStyle=orthogonalEdgeStyle;rounded=0;orthogonalLoop=1;jettySize=auto;html=1;entryX=0.5;entryY=0;entryDx=0;entryDy=0;" parent="1" source="XY3Dx2JAYwhzfvwpX6yY-55" target="XY3Dx2JAYwhzfvwpX6yY-1" edge="1">
          <mxGeometry relative="1" as="geometry" />
        </mxCell>
        <mxCell id="taqw3ctyN8QEC7KTtnxu-14" style="edgeStyle=orthogonalEdgeStyle;rounded=0;orthogonalLoop=1;jettySize=auto;html=1;exitX=0.5;exitY=0;exitDx=0;exitDy=0;exitPerimeter=0;entryX=0;entryY=0.5;entryDx=0;entryDy=0;entryPerimeter=0;" parent="1" source="XY3Dx2JAYwhzfvwpX6yY-13" target="XY3Dx2JAYwhzfvwpX6yY-26" edge="1">
          <mxGeometry relative="1" as="geometry" />
        </mxCell>
        <mxCell id="taqw3ctyN8QEC7KTtnxu-15" style="edgeStyle=orthogonalEdgeStyle;rounded=0;orthogonalLoop=1;jettySize=auto;html=1;exitX=0.5;exitY=1;exitDx=0;exitDy=0;exitPerimeter=0;entryX=0;entryY=0.5;entryDx=0;entryDy=0;entryPerimeter=0;" parent="1" source="XY3Dx2JAYwhzfvwpX6yY-13" target="XY3Dx2JAYwhzfvwpX6yY-35" edge="1">
          <mxGeometry relative="1" as="geometry" />
        </mxCell>
        <mxCell id="taqw3ctyN8QEC7KTtnxu-16" value="&lt;b&gt;Transformation de la données brute&lt;/b&gt;" style="whiteSpace=wrap;html=1;shape=mxgraph.basic.cloud_rect" parent="1" vertex="1">
          <mxGeometry x="725" y="97" width="120" height="90" as="geometry" />
        </mxCell>
        <mxCell id="taqw3ctyN8QEC7KTtnxu-11" value="" style="group" parent="1" vertex="1" connectable="0">
          <mxGeometry x="957" y="171" width="183" height="88" as="geometry" />
        </mxCell>
        <mxCell id="XY3Dx2JAYwhzfvwpX6yY-58" value="" style="shape=image;aspect=fixed;image=data:image/png,iVBORw0KGgoAAAANSUhEUgAAAXYAAACHCAMAAAA1OYJfAAAAeFBMVEX///8AlogFmIoAkYIAkoMAjn8AkoQAmozv+fjR5uOq1M/l8/HC4NyGxb/R6uj6/f2OycJjs6ofnpHs+PdPraNvu7LK5eLd7+2129d+wbnW6+kypJjf8O6cz8kvoZX1+/pAqJ1ltq2u19K53tqXzcZ1vrZWsKaizsgSo72/AAAKK0lEQVR4nO2ciZaquhKGwSRgO0srCk44YL//G17IACSpANfT2N5z619rr95KZPhSVKoqAc9DoVAoFAqFQqFQKBQKhUKhUCgUCoVCoVAoFAqFQqFQKBQKhUKhUCgUCoVCoVAoFAqFQqFQ/1LtJkkWUkJomOWn9K/P5v9DaRJS6vv+qFDxh9Iwj//6nP71umdEEK/l++Rw++vzGkBLrr8+i1LxgRjMJXkazTp/PE3mLiW7N5y80p4f0X2HLvar7XpziMLiXvbD82a7mn0DzeYdu/k1LbfMNPT6f+w57vj5F6Muse5O63N+x9nj2d2MBMURSeTYOmaMUBr4tQJKWPSYmg19Up745B+ec7fSiJpGnjW6wQ87ev6L+S79Bvbv84iSgHW2OxF+SOI45DgAz5CQtXFH8puBDI79Ti3/4s+aHdF1DgNjn3Kc3dgjecwM3uzAXsQOZK41fA/2m+3V6SMl2hfs0baHobEHvbDf1FmwBbhdYS88URCU7qhh8dml0fAt2G/EhF5EMMsv41vSxl1ijwB1+ac+6on9rCAG8DAgsWfrbZ4nSb5dH0ZM3QBB1OD+Duyx7WEKY/diszPI3r0PgZ1OZWSm6RdOsR/2uL7lyBFqILCThh0sj6czkY6m0VVvwD42Y3U+hF5s7D4Fr4Wrwj6M+mHf1E6DJlADid3wejdp8Kw2qzdg3wDROj15NvaRf3bu5BOw77jZRhNhvVDIC2P3pnIkruPO4bGfbMdeGPsSwj6iK9dePgF7XjYiJ4/bfPHXlgO7d5TmXnmfwbGPQ8jYfzwQ+8h3ce2NvdvZQy36YL8IK794c849BJq4sHsPvoFWUeTg2OcBAHdUbgGxXx276YF9uZjkzyItD4ucPN9fwDbj23ZTtjg885+40URiv3w3ZP72QaRPn1IHXDf2seiyTH0eGvvYTE65sfPjQdhHxAG2E/viwBNzNeIRdrXH5/RZNJENihbsUPER2H3WEDE7jjtoVp7BtWxNN8DVurB7mXDu6jYbGvsJwC6HFhA7ncP76cQ+M/MpauUBc2IkkXVoMbXTy5GB/V4eQMTrIpBkdr+6sW8DbRweGnsEeXZR6QWxgy7T64H9aKexTO/CtdUiqMD1wM6jR5kR87QpsGNIN/Zc3GXKcw2Mfcecxg5jHxE45+z27dwYCSGMKEfiayW+hKm7gLsQPtlSbezGLqJH+YuTGl0NdVr7m7A/AB+jklEYuw/mIT2wj5i/SU6zOI7v87NEHNTj4kJ8xc6rOD3uFrP5hrCs2qqwN+rJBlQVPXKJEdLG1uXbq64cGPsTSFAPcltMKsNqbs7AHXVjn6SNsHAvsddu5spvAdqoP1xu9WWrANJZc1hSrRv5oFpdSSUn9qXo1iodHBb7EgjayV1u/ApVMUvnDoZ+Ejs0UwPqKBxNPVLwj8Q1f9gZt/PUtC6AiQGcmHVIJ/Y7NzG6VZ+Hxf4NlB7tAsBWw07A1QQS+32xWMTyH/8Tu8qPN+EH1PSC5pptdWI/+L5WYg51jFJO7KJ0Wdf6hsUO5f/WOaW6/6dgHVIWfokpRlzHDjXzTkU9xdW4C7sYGaLa8TxErxp3pgv7VQ7yVfNhse+tEdXPrEZr3RFR8GTc0xyuYyflpVZpgMDuu+oGXdi32s68KlM1zhXGPt7IqcD698Niv1nY7fhwZ7Th9RpL/z32icrluYSvd1b0O7Bf+JG0/EgUgY1BFcKeJr4KaOtOHxb7xJq3tjNqM9ihUGnvBex8FAuqGo9oHDgq+h3YRa0303YvMlV9IBLYg1NaDjxfX7PJ/FpPLzUnAt9s7dbYbydUrdbObLmOzTP4YK0+JsLkghPoZzqw8wGVaCe2hAZVOakXVENPY/GGdg8Mi/1uYAeM/WqGmG2+PUgvY1PNVsvp/Weeb5Of/W7J04Ia+7e6+ugBTFC0YxcDA9F/lwui2qDqXDlQHFa7L94byQDGbsU6bZFMe9web8OyMkBpYW3MF3WTCrv0CuXV0rUVarRjF6OzYTIiuNEzARd2Qlb6TfbWuN1fWy3WVj7VGre3ZKmziFHrehvYvX21PWAjw+TbsYuB8m58K2bqtEEVwF5WmLMf07O9NUut1luEuWyQ2jWb1izVjT0Hx9wmdm+XNWb+ad68c1qx3+FUayJ6o7neS/l2Ne7Q8Pyc34ELem9NpjIBNRLZxu5n4I66sF9VgUcOZ3LCI9Dvr/uhqk4WZtgImVqxP/nG0XOjS1S3tAkCGcn87NJCu+P3GJ7j+pMKZMlWYj8CxYOXKpAnJs0smp/ucXyfrJ4UwF545C2rKnCsnkFswz5W61wMqd00mzorkIb+oN7ewA4UKF+qt0sy7Nm44xcEwl6kPqeoGlwr7m3YT1U/gWquBfwU7ODsUoXdDmNenF0SZPTlnUbc3tReLdSqkLVhP7RS1w7xMdihudQKuxWzvzqXugEivBbsnvcjXET1E1FiAbGnDHQxtZ9pxPMfg/3Sgt2sxnAf89LKAT5WGxFeK3ZvGgpzl8gkdmgEFOlttAIkZuoa9D4GO7hORmK3w5hX18mI1en6xnbsavZfEhI5LAN2v+RdCi9XWwo3k1VffA52cFUYxw4Z+4urwl7ALmYeVEnyIu4XYNX6TJ8u0XU1QvfPwe5NoMVfJXbIs7+4BtIHrrYLO48wq9xedAJQ/Fxzko41sWJurx6PPgg7tOK3xA7F7NaccKV27Dxzobn2XRf2rGntMiXKrFYX5uoPLmPG9pOwA+vbS+y2sbfl/u3YxWJQqnkCA7tZdhRVxapeLkJQZtZdZKXdeWJi1VGVa3wSduBpjgI7ELP3epoDlFwE48/M72rsh82tGacsRCGrKrRM5R7UKSxnGXf0ogIALHeUl6avCPgo7PazSwV229h7PLvktLpM3O3snOzjdJcuFrMbH+4q7JcgIMFzdY8XxdbZShbFGgmWfFKDnPPH5DRfh4yVsxpHoLqrScShRFYYPwu79aSen0/tWdYeT+o5se/qSphcryuWmVbYuU+hYiEeq+thdUE2VRWDslpfTgrxRTEr4b1cFS3l3lS/fBh287lUP9kaxt7vuVS389/Dc60V9glQWAn85mDwMPdQOqBI2wkg0d8q2/007MZT2P7B9Dr9nsJuGXNjH6pYUUXsCiwIzvS9zY0mbKdyKmugbUhUbGRy/XHYjXcOGD6nzzsHuFpml5aPUe09ysdxS4cSqkRgNw8bvqVc9nuwBvA4YmrKuZwSmiy9dfsseamTaCKO8y0+dGMXEyHgZP1va+F6wwbp8YaNi1h91/5YUnrij8hEUbbeJo99rK/OmE7yzbk0s1G0ySdgBy5W6ywSD+FwOxAHbX2DhzwxEYguxYcuG1I77r2i85/pPe+Tae2aHs8Pf8RbYH5XaRKZb0+Cn95H/bJ2k2QT+fxdYQm+KwyFQqFQKBQKhUKhUCgUCoVCoVAoFAqFQqFQKBQKhUKhUCgUCoVCoVAoFAqFQqFQKBQKhUL97+s/9NiMSaj5P6sAAAAASUVORK5CYII=;clipPath=inset(4.63% 6.67% 5.56% 9%);" parent="taqw3ctyN8QEC7KTtnxu-11" vertex="1">
          <mxGeometry x="20.675106382978807" y="15.172413793103448" width="114.44045977011494" height="43.87638180909545" as="geometry" />
        </mxCell>
        <mxCell id="XY3Dx2JAYwhzfvwpX6yY-55" value="" style="verticalLabelPosition=bottom;verticalAlign=top;html=1;shape=mxgraph.basic.rounded_frame;dx=10;whiteSpace=wrap;fillColor=#f5f5f5;fontColor=#333333;strokeColor=#666666;" parent="taqw3ctyN8QEC7KTtnxu-11" vertex="1">
          <mxGeometry width="183" height="88" as="geometry" />
        </mxCell>
        <mxCell id="taqw3ctyN8QEC7KTtnxu-22" value="" style="group" parent="1" vertex="1" connectable="0">
          <mxGeometry x="957" y="293" width="81" height="53" as="geometry" />
        </mxCell>
        <mxCell id="taqw3ctyN8QEC7KTtnxu-20" value="" style="shape=message;html=1;html=1;outlineConnect=0;labelPosition=center;verticalLabelPosition=bottom;align=center;verticalAlign=top;" parent="taqw3ctyN8QEC7KTtnxu-22" vertex="1">
          <mxGeometry width="81" height="48.18181818181819" as="geometry" />
        </mxCell>
        <mxCell id="taqw3ctyN8QEC7KTtnxu-21" value="&lt;b&gt;HTTP&lt;/b&gt;" style="text;html=1;align=center;verticalAlign=middle;whiteSpace=wrap;rounded=0;" parent="taqw3ctyN8QEC7KTtnxu-22" vertex="1">
          <mxGeometry y="16.863636363636363" width="81" height="36.13636363636364" as="geometry" />
        </mxCell>
        <mxCell id="taqw3ctyN8QEC7KTtnxu-28" value="" style="group" parent="1" vertex="1" connectable="0">
          <mxGeometry x="1064" y="294" width="83" height="50" as="geometry" />
        </mxCell>
        <mxCell id="taqw3ctyN8QEC7KTtnxu-24" value="" style="shape=message;html=1;html=1;outlineConnect=0;labelPosition=center;verticalLabelPosition=bottom;align=center;verticalAlign=top;" parent="taqw3ctyN8QEC7KTtnxu-28" vertex="1">
          <mxGeometry width="83" height="46" as="geometry" />
        </mxCell>
        <mxCell id="taqw3ctyN8QEC7KTtnxu-25" value="&lt;b&gt;WebSocket&lt;/b&gt;" style="text;html=1;align=center;verticalAlign=middle;whiteSpace=wrap;rounded=0;" parent="taqw3ctyN8QEC7KTtnxu-28" vertex="1">
          <mxGeometry x="11.5" y="20" width="60" height="30" as="geometry" />
        </mxCell>
        <mxCell id="taqw3ctyN8QEC7KTtnxu-30" style="edgeStyle=orthogonalEdgeStyle;rounded=0;orthogonalLoop=1;jettySize=auto;html=1;exitX=0.5;exitY=1;exitDx=0;exitDy=0;entryX=0.195;entryY=0.019;entryDx=0;entryDy=0;entryPerimeter=0;" parent="1" source="taqw3ctyN8QEC7KTtnxu-21" target="XY3Dx2JAYwhzfvwpX6yY-29" edge="1">
          <mxGeometry relative="1" as="geometry" />
        </mxCell>
        <mxCell id="taqw3ctyN8QEC7KTtnxu-31" style="edgeStyle=orthogonalEdgeStyle;rounded=0;orthogonalLoop=1;jettySize=auto;html=1;exitX=0.5;exitY=0;exitDx=0;exitDy=0;entryX=0.208;entryY=0.989;entryDx=0;entryDy=0;entryPerimeter=0;" parent="1" source="taqw3ctyN8QEC7KTtnxu-20" target="XY3Dx2JAYwhzfvwpX6yY-55" edge="1">
          <mxGeometry relative="1" as="geometry" />
        </mxCell>
        <mxCell id="taqw3ctyN8QEC7KTtnxu-32" style="edgeStyle=orthogonalEdgeStyle;rounded=0;orthogonalLoop=1;jettySize=auto;html=1;exitX=0.5;exitY=1;exitDx=0;exitDy=0;entryX=0.782;entryY=0.021;entryDx=0;entryDy=0;entryPerimeter=0;" parent="1" source="taqw3ctyN8QEC7KTtnxu-25" target="XY3Dx2JAYwhzfvwpX6yY-29" edge="1">
          <mxGeometry relative="1" as="geometry" />
        </mxCell>
        <mxCell id="taqw3ctyN8QEC7KTtnxu-27" value="" style="group" parent="1" vertex="1" connectable="0">
          <mxGeometry x="960" y="397" width="185" height="109" as="geometry" />
        </mxCell>
        <mxCell id="XY3Dx2JAYwhzfvwpX6yY-60" value="" style="group" parent="taqw3ctyN8QEC7KTtnxu-27" vertex="1" connectable="0">
          <mxGeometry y="5" width="182.56328462646636" height="104" as="geometry" />
        </mxCell>
        <mxCell id="XY3Dx2JAYwhzfvwpX6yY-59" value="" style="shape=image;aspect=fixed;image=data:image/png,iVBORw0KGgoAAAANSUhEUgAAAYQAAACCCAMAAABxTU9IAAAAYFBMVEX///8A2P8J2f4A1v8p3P5d4f7T9v/u/P9m4v7h+f/6/v/q+//k+f/1/f/Y9//H8/+K6P7O9f+y7/+78f9T4P6a6v+A5v+p7f/I8/+h7P6r7v+/8v9D3f9z5P+D5/6R6f4P91H4AAAS+UlEQVR4nO1dibaiuhIVggqIOIHKEY7//5dPSFXGyoA93PNs9lr3drcSwOykUmOyWsXh8MybvsmP5yKygUB1/l5nSZI2x8PcpgsU7K+MJRyMsfwR37I4JqLp62/tn3vHT8dZdCN25rWKa5iZLZO4hgtMXI2enHpzHRZLt4RqWP+FN/48HImunGjYeZtdKArGdstcmI+DItL1bmVXd6uiV69lTG379979Y4D9mD0vj0s76OP74mikzp7XSt4d6vrepvDv4199/0/Ak3cnExpR0So8sHVJtCkSZfYMJ/E5LC5s+zde/INQQr9py/CpUWiwlf9WUpC0GknAgkeMLSBwm7qN3YyPi7XsaKNLS7ka2GYBl0jsD77wJyKbei21v9gIE4D1e+XzQs6RwRZVd87p+c+98Adiyzvti/ruJmWS1P2FXcdS0iDgU2H9h173M8H7lFGr72q1F0uDGNpCK3KpQB1b5NFcDFOPNq6vv4w+z8XkcNnFFSdhMZtngC8JbrdblYoF4PUvXJKZkzUwO2j5toAGH7cnzxW57PgeCXn6rl+U1JnYcRK8xpWwCsSfXk936xdwCyxsYpbRg+bISBK/e/XCr/6NL/npeET1WKFxEPBJRPG6QAHXUPvQZVtJQUZrsxKVT+ldQIDbY2EBvhcSKfLSxYcXD25ahe3bRsyEIXQp9wgyf0BogYJIEqSNFg4WLCTMRRwJWvzTcrgaWEiYi6g1AX0X+Mfde/VCwlxwpT7zXrPBeYCaqj+SD37Zve+aBSq4HUZEEyR2yMF2VeBfffrnoqLORYRlhcN/tJPvwILPsFiMtbnYBWUHKKcQaYblwZcL8whPrgUaYBV1e4MwF6ODf2M+hSsVBtf6oBG+QEId5gRA/jBpouHMcC7Ox+n7/De/50ej18a5iS2xBqC94Lojjyf4Ig4LDPDwpssXgVEcVdWpgBjXWJ9CcUu6xRx0PgmOC4C+ZID729XPfJXZvPEuhQvVh3sD7x6F8uDo7SMsC6RRXLxvq6V0lvd4O5au28/NHdi6kyNK7JP2OuTr9bppXv/Lh+H6TDzWwi8E1rLUg1HtbT/VAiQGe3X4eg69o/pAG6BZc23PG01YXKdv3kr+8pIwEeHNMPg/Rq6szGV9Pq4TZpYpBJh4IcvbB+isfC1/q7OCJLxoSGeXNf4/oAMD99TlVpHIHLza9t/nCtblt8o4I0hIU3+qx4/A9nwZ4Xc2a6gZ9uHb/a8xwf98y4eKJNj31VhwG+s/BCc+EGeI5Htc5zNAJBu/QkL2POr4HsbMP8nCT1eTNtO7RjsNLnmoW7M+H67HZ9vdbrev139d+zxeh3WfBTjL2vnCm5NAL+r3nAkafnpO0xwSHjQD43BHS9kX1Uep0TsmCEvbmdE1Hwkvna1HFsLJBv8tokmovm0V9NWZad5e6j0q+94hV4j6tO3p67tJCCZYP0t++0lYrb6RhR9epBtJwqG3eyy7ftVgDEGWkTdPWHi50WTbHtq1TUPyjF8eQiQIFn74VIgi4UzZYWqceR0WRiOgPk3Ngqcq/IdYqRQkYYUS6WevChEkXHQXDUu4uaZM8XuEMBqB2q10JoC3qdFFExviHHBhEioGJPxoYyFIwkbbEeSlxFQ4fGWhCIzwsDwfzBkzIHuPQeMhrrw8TMLLvufXfMfc779CgIRSSaUb1Rc++nNdHkE9QkyFAdxIKO68JfdZPNbadIhYoiNIOAAJPzp66ifhoVKQi2WX60Ioj/ZC6wkDtCjk76G7ZPfa1gBNcIWOIKFEeeS8ojo9Lo/TDCNlX5wOh8OpmOGhLYv743E4uXQ0LwmDmlGq9rE6gGFeRO4exQ0KdMLm1lryUNSwoEMpgoQVKqlkl9VP8TiWfUf4bqpuLeuP0uEcocmV5yFVHqIpkMVmRH3mJDT1hkMZEXvpk2GGY17tvNq5Ku+IAFelXl1qZAJOSv1/YGWIIQH0I2qefmWqc2P8tU//6DYapKO/J+ASqXOzSaqMVhzl4gVABogLlEL8q/luB6V8sCdHbX3MJtdR3xq/nocPkql7b5pYE7jLkeP3acWQ0LhIuKSamw+6wZXBML5tYjdIX1LaQ1zVMOohIhgzEHdU5VItOqIn1Hb+1XjxQ7fAOJS9jZi5l4KygmREU/57RXPvghpDAjj5TDftviF/f5pkjqWtyOgGqackryUomF4G3zhAgsgipcPzfDyPghau0kZzq6k5RlY2dHCOPJMVzHJrAB8LMSTAzzSC4rUY1eItxb/JlIOOqd2eaJPClQrX6HJIlXwZHxN+Evb4ao6BAdH5G3apZivnOgdmP4NVUYCR4MgEFlsDeLo4goQKf6b26R279CV/n5f76X5+SsFBOV8G0eA1LPLr9zVXlwcy37mUU2dcxJumyRSq04mFQeNfDAj4QeAVZU4jjl+Q4kRQJ/tgcmDYcXc0Kwj+FIi8erfaFUFCl+gzfMIG9dakky9e3nCRsEf2WiydTzFPykcjmKG6KZMdLhoVHT6Da+nPZkLPP8saALcsQZ4wt50Je7dwp5EWTr/YHBjZLsAwtHWqF6iduV2gESRgR6gL7g46z8pSfiI55shGCgzRvBG02T9CeK2MRhcY+KomU1N2wj7IgeF5Uz4vKQ500V6ol3jqTcrUbqshTMIX9pJKJIxRIvhcJ/Qdi5EdRsxZ6Gp7Oj+RA3uSTEuFluxGGmvfmmiicVWGuVqU1tIkaA/Nlc996Y+wMjk95EEStigSVKrBv03edWcP0wmvPqVdY6h8GR8XONkoWTr+fG12kyTEOEUrpbPVz0kKEj0TdSfb+mtDoPDK1cshEkqx4ilUg2PVwX4NvWc9yiE24frEYBRnCJ3J06S6ukORAKZYwPsrKpW1n7OhJ4LR23IaBfKNvApUiIRCmmPaezvEBAeXI5b7sHblysLtdCPv4BBrgL1htFAk8KzFUOmM3EVE/bRzkqCOJFHvH0p12XmzkrwklEeh2quSBwSFu4rOll9e8FXHcJXjRIi8B0VCZMEAKi+aEXClCJguu1CXBcOO3nKIzLX2raqLmmyh9hC3jzy/jnvTPLVIOijNBomOTfenSGjsTiPfllo6BicJ2huh/hUMwA++AeFM/hrvngoOtEAHrLyeGRhiSceO6MBjQi8sLrhJCNIIBoH+qEgSoKInXJUQRYIXurTi0tqr+PG5EiuPuNGh3xAeHH00BEUC/+HB/dAyqne/nSRoch25Cga8eFvHxgwxJBjucK6fegXFJfHOlVJfTQgSwBiM36OAIqElxIyNE7kwm6dbSBJUySN01JDorb1lPOHU+CSrqSbegzO4uykhQjxVl6dT5lqWd3hfgoTLTGlEklCjd84LkTOkTYXKRYJGlRRagYQnrge7jAk/CaMX3lKzYZB6H8q71VIGLorPbpKRk7JPkABabnyuE2msQed61cedw1hz5ZyqGorClD8yffH7+KiFWVCQ5p0tD8Cp6hf4vEsMcVxb8QTu1iFIyCnTwQeShI4K1Bg4KpJGnTMOeaQJSDXxzqeFVGQdogRmZY+1WYAce4g2NU/oS/IhtbpVjycoc21DkcCthBmpTnSgP0JWuBx4K1thHKGOq9rZVgdupOd8DcpYO6PnjLTGHo7wGNHB2hCUht8YG8gyVILZeW+TAK8VX49KkwBigPIb4m+FoAC/TlXGCnIqqG0hKs3nklsV3uEkcopF0mJuqAiC+GHRJGgi60tEDrIbn5Zl3fWjOciets4Ll8ZXRThSXsDP6Q60Q0wAlw912BECSVONMPUR2rqEHnqhPFYjScIWHZiUOHiPBAxAJKmmMlVjvI3wEv0uEoRQcYQ3YY+iDsOb2ipmsaALdRHe7NzVuNIJ5dsfhvYddR6BdIhZE2BlkK1wclk5hiL6T4kjf4q6ChcJYmNTeiAehaBI7aH+uqmWV6odaaFEpUuCQMBe7HTus20dDjxYrymBtIHuLLdhiEboCqLyPBtiJjS0I9YNZwaeUCPZmpDJ/Kux1YXUpFolT01/GTySZ7wpOKrt29/kw30v7yBBRFRs5+suxk4wcUTmqC8be00AH2H8gZbuNEhcFyknJuytMElIOvlrdTg2r2XM3tsAkmUmzRT2/DKHzEmeC+M3eFyubHSgEZoXmyuvV0LG03r/ziahi6n5UOHJRd3LPE1zaomM9pUvDZKClgYJE0qf5rU8qCqU3+qMJ6ROgQRN5pzWsIfZQytphJ1wnxdNiE4INoQK/xxcY7kytoPQE4JbKZoA6llhQU3bScLJKZC+w15UE7XXyiZI2M+dbv7UeCV9haXSLoaM9gKfyS+IcRoaqfFbw0ulnlFLn5qnwR1ZG1wCCdSjOXtPHryuIMqV3ZOODzcCRSJ79RA7dgVu+dgXOlwb4eUAwJ3EGOmVlvVVK9aJsPrdJJRIgtV1iU/Ak3h4u5QiofOt5ASC5VIPVd2EWh2zXAq+DOtkENWUT4Ozqvar4qmrtb9aLnVBgWR6pIe5AvuNmYDyKPZI0YjCQT2T6MVDZ2a0Y2ghxLxdOFii90N/Rv7rhYMiG9f4vJjZQWJNcEx0igSslIsN68SU0Jbk+cvqQpWbI5wGd3NrTle7kvlFQWzpt4+EvUsgYcFCtH8NtSN6iJEkoKXiWMxrw5iOKyYvn3b5fd8exHjFtdlfcNTqq/Kquhx7866vhSd+bwVvyssNPRTGL8YOcp4yszXjbl61lrATVrJo1DE+DK0NSAhXXn5lFg2Mseb6dRo7LWZbhZ3UoqpDN/TEDhcvFWzOhmn+5K/eIZDEZgs02xsr5QrzSsnLCYt5pcxD4t32aWLk/9Xx61Q9UPuCTL6uBkM8vhkFoz5dp/QOI1L7ikVggxEc8qZAEl43Kqfsm1ktwNdB/ri1Y8g/8OGZKVtPPBChqmcQ74t0+Tn2eVGQNetpp532JrbaaY/XIW8swWMyMMzf/CuQBvl0CCSRJmwrAFCXZih6KFwsBWlHelEnyM1NrupDtlhuoj3CWEKCdu/BmWNnz5D4Xafe250rlBCcIozPaxGjYYOyjN2vCd2nQrj02rDevxQWKp7AgYUlYzUQ7MRSnNeMfAL6ffuXKCgPfXjHONQz47gIc/UHSahdAkkrWeuvz657DkouhRXDOOCNWH6ARWvLEy1Z5/SD5DLpgHeXkhdoLMKimgGuCi7R3N+THo7Uyjqr+1nSPA8lj5C+dfRmsD5hcAik1VbJnYD3Uf5tjwgZ3xy3Fc3X0/6j440fRIwZIQPTJszLt8aVwd0RuGY/ja3q0Q7ZzA05uaBK+qG78ydxUqOzoFWEK3VE11rfHB3lrS/hQfXAhWmswV/SgrYTACeiVHp6hCX0n/qFwVgE70hFxdpuLt11HBthLthY+tg9atUr7Nv3OYAwCUJJsWdataYKvVnvUFHkZm56X/pImPbZIh5BpPCsteu8hWorUTFApQKJkOhxkNs0r/Ph+oQpT2rae1+k2Q8IFfsk6Br1A0L3qr4NMfSSip7XsDLwpqG0879D2aVMewZraC1Q0pVYBYoWHp6BCz4kK4sFIv+OjqbbxKAExFxDh2Q27Wi1TCJSyS91oX5Oa8G0mIkJs91PcLcqpgzWSQ5nni1Jts9sepNkHe4KLsId3qwj2du4A6FD0PFFJt6h9tux31W76I33tlWxe2Mb9LFZ+Bm7oop6Ef854miSabeCz1zxBl6d9daO5f8qJk+oM2Mbi9HUDsdDdVwcc2H1lnr0r4IvCU4vBy4L0jzC46acHtbT++rRP4q9GdAx0RoLAJ7l4pb5FfNOlAUWiuCwhTAN+D8KQj4ZKEO8LjAAW7T4LsHS2lFFElv2+BQKb0nUAhsRp9DiWWujAwSLC72ladxv9dYxFv8m+F5Q/uwWsbVCiYqR30eaRVyzQEHUyeSYG49/BAyxfiFhHrjBHEqreGq+vJAdxklYjhyMBjdvg9Wh6hZswcy8hYSZiCRBbsQTTglbxNFcxImjlay3ishCSxW7YkEEeA1NOE1JpgP0wZkQ8IQsMBHpbdN24Q85JNxhogUk4oKRxgk8/v5dfEdzEXNwr6h2E+VWXmv4sHhR5yLs6BGb47EaYzze4jNvrG4BBd6pnm14ZB59JeWSrxT2FxKP/lUMfiN4K5eDSWTJzcudUXS6jnaBB19eCS52VGAoXsTEcJV3wgE9cbU5CyZA3hHpZNjJymdpU0teMlJL4uvGEmKeBR4ioPK45GqgcVQLVdU+F0bkF8fvQbBghc5se2m+OQ2DUjncxSpdheryRRrNAu4QonW0ekIacfKFdG2zpNNmwzfzL/QLaEBplOJxe2jnElKeuFo5LowN0k10pRhdEAGhALWH8TSaXk3Hdp54dVUvYuv2sdk8xGaGP/uk3h8JuV+8WZvAUrcvtNDLP7Wmf/HlPwZ69FL2a2AHG/JY50UYvYsr0ZssCWwpvBo1KKrhknH0Huy9Bvs4v8PZrEln6ZJ69y72SmU540dlR6I4pkzVWP/gS34+ysdx3WdZM7SHufGY3eXVNE37vF1img78D8R2vxZ4MEyLAAAAAElFTkSuQmCC;" parent="XY3Dx2JAYwhzfvwpX6yY-60" vertex="1">
          <mxGeometry x="24.734380497779323" y="26.171294117647044" width="127.06869815423161" height="42.57311050977242" as="geometry" />
        </mxCell>
        <mxCell id="XY3Dx2JAYwhzfvwpX6yY-29" value="" style="verticalLabelPosition=bottom;verticalAlign=top;html=1;shape=mxgraph.basic.rounded_frame;dx=10;whiteSpace=wrap;fillColor=#f5f5f5;fontColor=#333333;strokeColor=#666666;" parent="taqw3ctyN8QEC7KTtnxu-27" vertex="1">
          <mxGeometry x="2.4367153735336387" width="182.56328462646638" height="104" as="geometry" />
        </mxCell>
        <mxCell id="taqw3ctyN8QEC7KTtnxu-33" style="edgeStyle=orthogonalEdgeStyle;rounded=0;orthogonalLoop=1;jettySize=auto;html=1;exitX=0.5;exitY=0;exitDx=0;exitDy=0;entryX=0.81;entryY=0.993;entryDx=0;entryDy=0;entryPerimeter=0;" parent="1" source="taqw3ctyN8QEC7KTtnxu-24" target="XY3Dx2JAYwhzfvwpX6yY-55" edge="1">
          <mxGeometry relative="1" as="geometry" />
        </mxCell>
        <mxCell id="XY3Dx2JAYwhzfvwpX6yY-15" value="" style="group" parent="1" vertex="1" connectable="0">
          <mxGeometry x="728" y="236" width="198" height="81" as="geometry" />
        </mxCell>
        <mxCell id="XY3Dx2JAYwhzfvwpX6yY-1" value="" style="shape=datastore;whiteSpace=wrap;html=1;fillColor=#dae8fc;strokeColor=#6c8ebf;" parent="XY3Dx2JAYwhzfvwpX6yY-15" vertex="1">
          <mxGeometry width="68.28371077135303" height="79.37285644292015" as="geometry" />
        </mxCell>
        <mxCell id="XY3Dx2JAYwhzfvwpX6yY-12" value="" style="shape=image;aspect=fixed;image=data:image/png,iVBORw0KGgoAAAANSUhEUgAAASwAAACoCAMAAABt9SM9AAAAsVBMVEX///8xYZMAAABzjq8tXpE0NDQgV43b4+sASYYJT4kZVIslWo5iY2QUUoooW48hWI2zwdL3+fusvM+mp6jn6OmUlZaSp8Dt8fWKioqfoKDh5+6ztLVAa5nz9PSKobx7fHyesMbEz9w9PT3AwMGRkpJxcnIrLCze3t/IycrU1dVZWlojIyNDQ0MNDQ3S2+VJcZ0aGhpfgKa9ythbXFx7lbRpiKyCg4NNTk4AQYJTeaJ3kbGi+QpZAAAK00lEQVR4nO2ca2OiOhCGxwgoKCqINxS8V/GuxVr7/3/YmYS7bbfb3dOyu87zYSsRJbxOJjOTsAAEQRAEQRAEQRAEQRAEQRAEQRAEQRAEQRAEQRAEQRAEQRAEQRAEQRAEQRAE8TdiLRYLK+9O/CE4C89bWEaqxVpO+/3lApu82YqFHKrNO1fMaVYjMbar7pSrsZxHLUwO/qxlWd6KV5t+3h3OD2MoJHhYVaubQ/Cyu+F/LsNu96mKWq2anhOeu+hzXQ/LfLucG0u8+cd+PLas6Uwo1VpkzjLs3Xi8s8Uw7aN+82/u5Z9BHw2HK9UZN8zGeNfhbU5z7vCWkeu75o4LtCs8q5quq/reLeFhE43LybXbuYB21UJd2gVVVxRFU9X6sS3kGV9VvV6pVBRd3Y9QwpNUKyBSRd2f8AMbdrg/Ry+0MtW6VIiQ6s8NMI56qkXRfQOblPBQv6J4F7Y1Pv76f4oW2wC4aiGNNoLOoJJpKtQrDTxPC49qtR3AhlXz7v03w5gHp6xW0h5gUCvcIKkuqqXHRztwGFt8fIF/iD67gFGTMrJoJXCVW614+xHAj96QlA7MWS/v/n8rc9aEUVaZ2gvs1NdSIUoRYB8JW3lBpe8rfljjSNpnDUvfwfnVIAxty4VObFoFWLBV3v3/TtDtgHHjsQbQeduwEHUMZuTk64aDY/iOsJgMOz2jR70N5lseKzInGISGqKBYj3nfwHeywNs9ZaXRxnCW3tApVMiNxa2gXd6Vz1pgqHRjR4ph1N/VCrXshD4Ojczi8ez9sEDbGGW0QZeFc6FUU+qVV/Yl1TW93A5nT+mKmdJdlWqEZWXEqhWhoeoDf2S6Ay2rlTIY7Wy7BLYYhzUfQ4e7CkotFKuRGYbo39vFUvDuKOP6tXb4oY4QsW7CkN1VcuhgZjjOSKKMABWwTbc4MsBNGV3tDNC+DnhkIT6g2yBv8u7/97JmYGeiKsUE2F111W+411CW0LAwVsX3joVwGPLJsPs1nbJPbb/ojnbppoZ7Pvtxk2F3vubSP6TKHNBvxGqrEpcG2uN0KF+BTtm3R5ggjrXA0JbsS2rLu4Faru33Bfx3FDaN92q5jk3lshQ0lZ7PX3HpD2jhDWfSnfoIfFRIqpmm3k7NlBgp2GpNV9Cvi1gDRe2yr6iVllS1LczGMAtqUTT5qt4WbrSDTYOOOKn4BZf+iCXrgZsuXaGDD46VOhrPOJkQ62DogZjifb0DcpTsPG4miCzLj83f79Fea0QvOwX9hH+K6jUZdK5a6OQlFg/CM1Epnw1D8dCXlxJ/ppVEooMW9VITNS8rjrJk1hJ0L7+fLBq6lByY+pFXca/pE3zelo9YIG/B1t4Wq6CkU2o0qTYOSqUBxZrQrBWPQplF39b8UUzf/Zl439b3qYOyAkZFszNnXNVTXmI9MQsK0tti6UbK+WPEzu0MVeI+Dd86xFl0IhbI8vuXevyZTBIn4OTAOJ2gob9kzxirx7zEmuJgekmVr5RR4sMwD0zNlKrICusi3am9gMem0XekxJqzN68iqA5/pkMieElx1HevzjByEstiw4zTCn3Sa8vi47Ch8XQIT8cbGKbMKXlZ5S+dfmvWDDOhRb/VbfIQw7FWc4s3Lpqz1tSAhQXOgp/KPZ/X7DW94AOmqru7VGZQU27ThKNaykks4bRSYak2hmM0KuuZMqBUM3DASjzOQtfvsFnyFYlYhwsPR+ThcMUeuUursuqsN2QTC1rbw2G9tZxHthkOJ8xad9Gqp2y9GYL3sB22hmwdyIXhgVq5tk+BpzJUCW7w1XFeYnWzTksvxdU9nPEyhUFhWqJRO0EvFWTFYhlzDNt6wSxpyROIUm1nzRfNxDDcbIUkS/lhhmLJPNawgrIYfjhYtTVO7l4pq+rAxQGIP9dtj938xOJ1Fj9xWhghRNJV3JtaV92AfQ3jCX0AkK77yduLYMLwu5xoyYeHFk8PwesWl7M65y4yjPr7jIv1xF9Wo0lhkxRejVLDH6gYYL1hWTmKBawKpyR4wDznGoql7pIRGYjVxqkILatsZqsz8rYbwHeX9GOTq1bRykJtxJBEsYaT+LJcLG5lThyvTW9Sgt1VGUC9cuuzzuouN7GG2MXEgMJwKhiF9s3KBU6P1zOcKnir6XUdOT0FzuKD1prPjuzy1FyK++ViVWODFMOQj7sFm4daz1/Vx3AmeT0bDvS8ZkP+e05TwUMYTnFlGpFsiZI+7DB3bGDwmb6trFjb6FXvAGIDU3XNGPdNQqx4xf+QiNXtRVhQxBkmwdcxRXWz/S2hcecmFh+HqZoW/pBtMSrRfm72O4iM0IAzGNmVioxYzfhgmOQ+XT7guFjdyD85LBLLyRQvXH2UOmrrI0PTsuUYXzVzFGvODEhMCE0LjpooG5+0W7EqPkBjJ2bQFHK6YrqIg9VDCzZhfCHySD4bxqHsLBYLNpHyczTFBk/9Yoo6mreaKceM1UFuuSEE82Gq8qCg2Y80rZx4+rRpncDGWxcTnuOFYzEjFlS3gSXM0RfOt9ElvHAIzlkfvbgzk+VYLC/08GL9w1C0UfxVtoJpAyaD5+T78QfMreogWE8yrryMXqPTaGOIo73eS1O2xV6j+XzF9+IGqfE6I5ZxYa3lsrnho8vaPjQ9b9kTq7E9Nmw5aFJMltnKScTieyam3rIbFF4buuqG425cUEf871UdnIIr2L5a500l/WyXEr5DpIge/u5JTVQ3wQnHSul447WkAgpptKqrarfpWX0W3G3zpozVr04mq54IA4xmdTO5zIPv6z8NeeNiyXfzrltg9cJQwZpd5MlTmO+MMb4anF+Kx1q5EqaJo0JZOb7450FZvRb0NnasrJUTnr9Wniy8qBVvnNF8vqlPHuL9dZK1+ujNHXRSs9WFfXanpDWLPvGDNcexe9wPBnvfjD270fD3g8Lg6I6hVEAf1jEbaT7Zid9jiDd9DExL8XlChzjgP5s362SYE9o8DTFN0z3z3WyfrvXFKWXv0zpHGFf345O+EJ6dlYKl0z0vcTE2t9B5SIV0qbQgVikaaq2uq2Ud/Yqz+YUVixnrWY6zaP3GPri8Fyu7eNumyk3HgN5ElFcaGt+OdSNWEWzX57u98YTl9peWwqaPODMc5t7/fAffiMPWPEHVpA5MedTTOZ01ST/DjVj1ZAAsH9mv7r81HCdv4/g9pjzZK+EE7WEis6s/8woJ95u72xXYfqvf7z1duFf7H5Zy/lKG7MLn8al4zsQojce89ja7EQvztkn48NOqeYcPWMTgFHiZrxkvEwRRkdE8sBuxdBvYcOF53j0LJWjyp8E86G/EA2KrB8a2h1vL6jh3tpv7fcLnVB2vN9xMqk0cclkHL0mplVUiyyuxBl+1GeQf4HKzHwlj0v4vB97/OisW7sUKqbgYgN+9b3+HOTPS29l4mDXffvyx+2TIHCNdLMUwazP5+GP3yQyj+XSJhodZd/WYwGdo3mwLVIDCrHfhO2yKSWVZPCZAkcM7eOwp/TCiZooFWeJNeOEm2UcjFcBgd7bz/TM8MA/aQfAgKTUbWpTsvE+XV7lcVVE0vWDyhb2HvHv0B+MwvinIbphiZ1mPUa7zIzzGNkG1fNE93ON/EfIplgfGHh6rF77IQCHWh/RFvf3S+ouXY74Tw6HgiiAIgiAIgiAIgiAIgiAIgiAIgiAIgiAIgiAIgiAIgiAIgiAIgiAIgiAIgiB+kv8A/2LV37CDSqkAAAAASUVORK5CYII=;" parent="XY3Dx2JAYwhzfvwpX6yY-15" vertex="1">
          <mxGeometry x="74.24715484538454" y="0.4497795198431999" width="123.75284515461547" height="69.29658581446144" as="geometry" />
        </mxCell>
        <mxCell id="iZKfUfsEhRL90h2mDHoB-5" value="" style="group" vertex="1" connectable="0" parent="1">
          <mxGeometry x="728" y="344" width="163" height="74" as="geometry" />
        </mxCell>
        <mxCell id="iZKfUfsEhRL90h2mDHoB-6" value="" style="shape=datastore;whiteSpace=wrap;html=1;fillColor=#f8cecc;strokeColor=#b85450;" vertex="1" parent="iZKfUfsEhRL90h2mDHoB-5">
          <mxGeometry width="73.14336997980702" height="74" as="geometry" />
        </mxCell>
        <mxCell id="iZKfUfsEhRL90h2mDHoB-4" value="" style="shape=image;verticalLabelPosition=bottom;labelBackgroundColor=default;verticalAlign=top;aspect=fixed;imageAspect=0;image=data:image/png,iVBORw0KGgoAAAANSUhEUgAAAMwAAADACAMAAAB/Pny7AAABC1BMVEX////90gwYu7Aap98ReqIAAADvUJmRx0H5+fmkpKTV1dVXVVXb29v9zwCrqqvz8/MuKywAtqq0s7RPT08nIiPh4eHq6en//PJwbm4Ao94AdZ/Ozs7uR5Xr9/YAcJweGhtAQECamZn90zLf8/HAv79jYWF4eHiBgID/9t/+8cn+7rv+7LPwYqL3t9HxdqzuOpD97/X72OZKs+Os1/DX6/e049+i3NbK2+QAY5TE6ebn8tuLxDJYxr2czFk4NTYUDQ7+4ob+4Hf+557+3Gj910z5xtv0kbvyg7P2qsn84+z1nsLsG4bF5PVzweiPssd3pL1Rjq+Sy+qwyth1z8iu1HzU6LuBvw7H4afj7cmp3zjCAAAIVElEQVR4nO2ba1faSheAgxANAQwEEkDkKhep1lIUqJcm1mp72qPVSm///5e8eyYXEkhITt+lM661ny/CrEk7T/fsPXvACgKCIAiCIAiCIAiCIAiCIAiCIAiCIAiCIMh/oFwu7w+Hw334yXop/yfgcdnJWSQ+vNp/yT7DKzBJuOQSl8OXqrN/lfCYODr7rJf1Vww/LqtQneuDFxicg06QC9h0rl6GjSS5Lw8CTSydS3YrjIl08+nz0dHnf77Qd6864TKJ3BXjtUZxc7S5S9g8/DqCfLle4wI2Q9bLXctr0LDY3bwRhKvgfFnYsF7vOm7ebDrsHr4VypdRMh9Yrzict25cQOZoJOwHVmWfDbfHzejrIjCbu58jU4bwkfWiw/iy6eXr2rrswnrRYXgyBngdnf+EA9arDkZ67ZWJk/8ETkuA9I83ZQ7j5D9wzXrZwfgis3sUK/8TiQ6nHdrNv57K/Al6mRguiQ6nxXn06fDNG8cH8v8gxi5LdHhtaUZf3t4QIWIUM//5lSGMRl9uvh7++yZm/vO6zW6P6/YraTR6C9flOPnPZwE4rgLJu2PFHRnGCUyiw3DNYYyrSQIxGh+f0KFhLBf+dpmS9ECE7o6FWAWAw7go4+QS1SrYDNfdmSnk+FduT6TIv+H5kO6WXYCxFB2aS3hY+fZu55vOWmHBcYBLMnkc0QLkOuTzjJP7RirVeJjxEhzprhrgUr2D0HwID03umjT/swdwITaPnNgEByY5viW3szCb3DU5+W2XVGrnYcZaw+J7UGDs0ByEdAG5j6QkP6Z2UjaNByXyL3oG6oG7zEoaaAOGH3IBPtTl28IFbB4Ze1BOxsEyt3YWlPdXdHKX0MNIPheAh6wJlqlCxgiT+R6ZUd6/9OlQF+Xer5J6x0PWBMpUSUcz2djYuDilk8qe72joR8z6skuq8Y2phsVJQM5USf88KYDMRqEwodPKzncbuVeCp4wt2HlgqmGxesxUk2R4Sl08OsKr65z9GeYstRwXAksLh+XSXB3DYH3uuFCdqXXVGV7T68tjI8ilwdTC5napzYTzxe9CdDame+7VLdiFj8gI/j7zO7jsXfhdqM78lOpAZxmowkXOQGiS7karhrlYOhPQmQW7pBr3rD0svi/S5RhcTgNdaO7MYZc9BG8yLs4ZYVHQqmNy7J9uhLgQHThFZytVme4yLjoAgnXWVMf02A81ITIXYaF5x0VvRqkfw015fEKOl3Uu4aHhpGu2Ofk+JsUqwgV2IGnLVo//FCcZYyOBSz3KBWygWZvtvGs0eHYhLB+VwcBESX+89wg1dvhJGId4LoVTZ/rMEtpp3HP06YzDXgwVkKl7n5ndP/By/fezFycwGwVBOHv/4+cZ57/eGE8GTpqz8/Nfv7ZA6IxfoVgyhakg/Pm1tbVlCf3+w8vBv0Q8Gcj/3+dbNue/zv+wXnYw8WQkofzDlQF+sl52MLGqGeR/+b1X5jfrZQcT98w887rwKiNMo2XIjYbmP+/bTDiNIQP5/9MXmTPWqw4h+Lrsl6kLki//37NedCiTaJml/Oe1MgtxQgPnf9mTMuc/WC95DVGhcc9/24XfTSZEV2dyaz4DCWqytcVzXASy0aICA/x+T/nBayFzCf3QbMM6ZCzO/vzkuGNeMAm3mdejH+eM0+C8KWxMX54L5M20sKpTuJhwenOJQILg+HQK5CsN1qv6a+qn04tCgRqRH/PJ3ssMi41U35vM5xcXF/Pp6d5LTJZlJKler7/okCAIgiAIEommduN9Zayrqua8Vrpdbd1cRkjbzV421kzZNFTntVYqquvmMkJKixk51kxZbLoCWbG5/WRL+nv+i0xpIdN88ZEp8SggKJru9PiOjK7pFF8xkOC9exkIlfH8ac+OVhEJPZmuwJEpijbNtO2jbBvOWFsQeobRLBktwzBK8FzWbNliWt+aYqRZ/BqNKoqlVrGVhyVKHpm+0aLkTXFAl6WDSp6sPp8nMhmzaSMSGbFkFYBt0Z5lthnIQE3KpDVFU3slseuR0bIELatmTDouZMRSRa3JtW5XTdfg3yA9gIE0AGYgk6cytbxZ6tNZ27XndxEMs2gdd1pGzAsBBaBmWCETmz3/k1lvNbNlKqaYfuIFr0FeHBDpkqgFyOh9sa+D68pJIq/KaEWx9cQLXkdbLDmVRzbIv+qKjDIQK5ZM2/9ogEy3xTIwQs/MOy/1ljhYlZGyFSoD26yl+n5vKUBmOy+ySBWHvGnomoXcEvtemazaHgz6lZ5hyfRFM9/rt1XXNECmXRLj9XVPQ7NZyhRtSl4ZrQ/vCWbJklHaJnlntHptK0DBMiybZ3JOLFhsM71nipm0Kmt6tm/JCJLWbfeIUNOgK+ZPpmQaguIiuTLtplWQ3QJAkSRF7xZNkRbpABkoiPH6uqehuCgAFrZM3xTtKueVsYDwkB8BMmreOmAZAce4v+2wZSpiK1RmQDsYkDHdk8eWqbXEpfr9rKieGxbFlSlFyywOFVtGL4pLgX5eRLPl7/LdbWalsgQFoCfDFHeWnrG2WdZw0mrRzsBjXYZfGLTBRpUJNdnTaMLuL8paVq6loT0WixVFGKhdmCLLpADQiOiwFbfhsZpHpgtNdrtGBrsyC6kKPT5MWpotmSLISAMYaZELTD4DtwNRERYFvFmxbj6qXdUVzxUg7d55BizuM1K6n4F7S7FXGQzoElt9corr7V4RBgftLnQCbdhPg0EFRsjQtpNN2xUYyPRI59bq2WWsO+hlyKy+yub/OCiwK2py1r4h63LWeqHBaHaxIjhismRi1rN9dPKgRk4neNwZJLPgLX7XhiAIgiAIgiAIgiAIgiAIgiAIgiAIgiAIgiB/wf8AHUH4vOj6L2wAAAAASUVORK5CYII=;" vertex="1" parent="iZKfUfsEhRL90h2mDHoB-5">
          <mxGeometry x="79" y="0.53" width="78.06" height="73.47" as="geometry" />
        </mxCell>
        <mxCell id="iZKfUfsEhRL90h2mDHoB-9" style="edgeStyle=orthogonalEdgeStyle;rounded=0;orthogonalLoop=1;jettySize=auto;html=1;entryX=0;entryY=0.5;entryDx=0;entryDy=0;" edge="1" parent="1" target="iZKfUfsEhRL90h2mDHoB-6">
          <mxGeometry relative="1" as="geometry">
            <mxPoint x="624" y="506" as="sourcePoint" />
            <Array as="points">
              <mxPoint x="624" y="381" />
            </Array>
          </mxGeometry>
        </mxCell>
        <mxCell id="XY3Dx2JAYwhzfvwpX6yY-33" value="" style="group" parent="1" vertex="1" connectable="0">
          <mxGeometry x="547" y="481.5" width="133" height="88.5" as="geometry" />
        </mxCell>
        <mxCell id="taqw3ctyN8QEC7KTtnxu-2" value="" style="group" parent="XY3Dx2JAYwhzfvwpX6yY-33" vertex="1" connectable="0">
          <mxGeometry x="25" y="23" width="108" height="65.5" as="geometry" />
        </mxCell>
        <mxCell id="XY3Dx2JAYwhzfvwpX6yY-34" value="" style="shape=image;aspect=fixed;image=data:image/png,iVBORw0KGgoAAAANSUhEUgAAATgAAACiCAMAAADiKyHJAAAA0lBMVEX///88Oj7iWhw5Nzs2NDgmIykjICYoJSstKzAzMTXgTAArKC3hUQAxLzTgSQDhTgDiVxT4+Pi8u7z19fXj4+N2dXdEQkacm53v7+/c3NyKiYvhVQ8fGyLGxseWlZeFhIbU1NRbWVyfnqBzcnRIRkp+fX/My8ywsLFramxSUVT429Hnflf76eNkYmW3trePjpD98+/zwLDrl3rlbj+rqqvjYSf0x7j318zqjWzlazrws5/toYj65NzphmPxuKXzxLXmd0zvqpPrlngOCBPlbDwAAAgqAWhfAAAW3UlEQVR4nO1daUPa3BImZieEHWUnIGstaFvUVq3F9r7//y/dk33mnMmCrTvPh/t6Q0hOhlmfmZMWCh8QFzdnl5c/v7z0Mt4c7oul6tFRtVK6eumVvC18LR4FKN++9FreEm4juTHJPbz0at4OrstHAOWDteZFrwoFd1S6eOkFvRE8lJDcjnpnL72iNwJObgdjzYkvFV5w1aOXXtObwFmPF9xR6ZCTZKMmKJxrrJ9felmvH9eU4Hq7l17W68eNEBtcFH+99LpePb6LLs5zcy+9rlePH1VacF9femGvHDXSUt34cPfSS3vduCsmCK767aWX9rpxBYIqrlkrB1YzDaBQ7X3F/u5Q7KfhZxxUK1efEL9U+p357Yur291Rqbq7/fQMS31dAIIq3hV+o1BRThVH7fr2R7nimXe1VN59MPW8AC6uyP4vElz1R+L3Pt3sipUSsOze5TOu+hUAFFxeGMVUSeWe+s7d/VmpWOLTvw+W+N2D2OC5tG84PtS48y++fD8qlshi42PVGl9jGZQ89bpLjg8sElyWaaF5lv6hvBxQsMq1d+QrHR+uH74FkeAgOBdASuUL4VAQH+5uznAkIFF50Qd5ZnwGBVfoo36hIqy3+15JcGoYH6vFAwqu+MF3SLeqOYTmovihOjyg4Ir7DJ+T6v40pOR87xGAxazEnO9tEtWUgvL1Cz7G8wOaGuDfjrICgYDKB+uLgaStAnLdq0xj5ST70Zo7gMWsolpzlxYReqzg4gLIEV9hvHP8AkH1O/zgc1kQVyCiUrF4dnPHtXgqH60NC6JA6SbpEyC0SnH34JUSD4gL+GCBoYCmHyrcw3O2Wu1Vij9ur4Pi4gseqPt4HDtQqyJnbTA+MKd2+fsqLkU/odjx0QJq4eILbDH0+I+D+MCcWunnPZLqZ2TGpZ/Pt+RXgM83uzIs28VmIIsPzKmVdzcCf34JI2rvf8+z4FeBu4fLMkd29ER7eygzp0akGd+g+6tWPwyZdH3bE3nvoxLh4GmRfEeGyrvG94qr36UimdsW8/b3HlBg+BCJyMXVz1IlqSLIS9/+QolI8Sb7G28cF1/OKolS4wuuZHCJyHtvbF3c71KaLC5y0rcXyDm+c8738803PoQK+lYq57M5lIjk1dK3iV95pHb5kG8WDnEm1fc8k/OlV0mXWq9U/naTN6PAicg7Hjz8/D9qoBxIrVI8+5JfbbhE5P32Zj6l2mivUvp5tY+xXeFE5P1uzvycYqUsC/69Z+qKR15L37O/8VaRME3u0h1Ht3sn/Bdo+uE9txjofosXQh8zPXmJAup7bjEQ+z6q+4RQjLOP02IgtG23RwjF4CZc33VlLzZbSg+Plds9CqjPNcZf63Q6bXSk7YF3E212nuA6OoO6Aw661wo/gVdtdgLEp16KsaFUPHtc8oWmNKu7R11jf3T7ar+LjpiaC/0Ui3OlqX/q6Ej73FYtS1UH0ZHBH/WP/1etr/43j44rmu5CVeMvf6WK+mqlevsI/4QHg4XuxNOg3ZckZQyPNDTJg2k1wNGBKkn2EJ5XV23vPCsW58RW1v5fTVXSI8E3DP+K4YcurhOmGErl3f5qh9S39Dwk3MxkTyTDI44uyf2+Kkv2OTh6LLMHX4IDEyZxQ1MMte9Ex1pK+J26JUvR4Y4qyRbTOKTZ35LyX1Yz7Kt2OLcRJqqfAp2+pEiSCq1yYchTpolTWQaKuLHYeTIQ8KDPhLFlS2yum9HBlWxs/L9ObKBedUM+Fu58lzTF4Kndt/3UDmXTz7Jjf6koy2PJGoBDXVOZsf8MbXkVH5Rl5VQG1lczZVnGTpAdtCQ98P+nCrDroam0xFvfp0jOff3U7R70Bjb8ytMTSo4maZ2lYk/AsbFsb9l/1opyGh2bGExoTHCRv98akgpipA9mklrwpyIbsevjbhDiIU1ybpDd5U8sEBX3+L0gDWczOR/NRsPtvJF64lhhgeEcKwRzbttOp2tI1ia6nu06PGaI2/DISgZiDVE3JHnlQ4ZyZUHkeDqdShvu/PtyBodZKX3NqXZ4e9zjmoLz7lTTDdtksA1dGy+SfSULlarjOjXggtosqNq6bkpKfHBoS1qDxRFzFByo6ZKBc5PgNOYHPbBgG922rUrecXYrDnf/yyAyy2d5re4nVLne/uRIe2jrpiwBKIZ1knT2VHYDpWNJIPOYW+63ZMU6jlxYW5dMdo2t7UYNDyzbsOb81ZhJSrblgQWSaXTYDdNuGvcfof2/LovJousFr9lLtxofONbsS//WRn1bEmGYA/J0Firl1XjM7EqP7WpiS4piyutFfN7IDM8LM1hXcOI1j2X7ZOBifqoA62caveo4DOQirndlusFVLft60x7Tq+eAWIM9G1wL3STE5uqP1qXOd1XTtysjdj/MIM/xaU1NCs8LHRczVS/0IjDFVIPUZA3DwSg2cRJ3v8vEmGDpyK/VF2q/mfbtEBdY5fbgpmpLlRabl94vxS+wyKgEhgVy3alsLPB5pwqrIlzIsWNbK2GIjXWVmaQV/KlDhRwLV+Rx8cB3barBKx2bY0tS8yW0aEhzj4q1eUxZaQR7zX+BZV3Kcu4bVpzr1lji4aDzOhqTq3feVI6SswHTQmvoOJt1rHiuSfp/sQCjxWqiSeb5Yrvd8kEV4csPODRSuvQ1ZqKy9NzOJ4CLx02NdGwlTW7MGnnTckOlry5bO1IVNxezcGI7VmTF/4t5rkhxT1n9aeq6YcUm2Y1MkgWY+GmZP5RMwzBUwbYxrneh6KpBq6WzcotceZz+vQjoBX15d9I0LTldbpKk4yS03VfswIEPVCXyI3VdQZVrYd5X9CB9GxpKJODCqeb+UnI/zkpWphWcuLXM+GkHmuJBj5LAJNz9LrrPXvnmx8RzzXumdAcJgUiSfHu3Gkam3CRJc+BXJuP1OJBWk/0ZJheT1Rgv9HS9Dq28Pl6vYm0cLFVNmw7jXIFdJbjDcDyOU6D6suVhiW5P4+KhVAnGHZzjgFMhqw4S6P1V+SYgphl26kG28yRE++ApaAi/mVqb9UNVIDLtJODOA7lhH2OWGhciKEKAeK0Y2HFixcUqH3ROf4+MtZp9Gy2X3CTpT2pgez04VYHn0XkShmHploN3pa98r38/RrOmcA5OMXRVN4RkWFYz3fPrwLwPl01kIyOr7/6nUqpU8NT5L6RyWYxmFxuqoi43Tsepz7g6wj4WeKBXioUBf26RAz0JShSXRK6Wir3vcV9xH0azjQ3VXoXyac9gKaESXOIrxRBqgiLUPAs3+XYLk7A87ZXcyX3vM0yip08OnyPFsqF8FpFM5f4bcW8uTmGOYHOVs0vaBzkKSD/cvSLurkG8YT+d0YR6zTWsChstNNNchfIrwQr6bINzzI7nAD3yhXthq7tP9TduO5ZTVG6uQ8HxfPbQE6uWUe28MqBYx9FXTV8VPLqP2LXawxRVL+VNaSfQIQD6MAD79RT9DZkpQwOxPFgV2iFL6zU3sl9qkKJyyCGIKW6nb0xzmmmtQUw+5EfbqW8nk8m27hCJ1z7oIBvSYbnTOFagPHeZLzVIGSQ5hootalyhm8dMO4vR+NhyJx9UaTza7O0Qncla0XTLsG3bMHRNOl38hfAGFnwiCX60irTEK8TIOQpsq8ndB3gX0cflQb1lq4YpBz+ALJuGtprs8eBO11QxqSUrhrbMRXg72/NZ63TJcMrgf2WLnA9o7hbWcQLhMYP3mbaa8u5WpNd8VM1Gs6tZIkMg2/1ZTrWrTzWSsFfUqdjOweh0ddWwTSWE5guuC68HGfoWSCC89I58DzoWXDItx63aILsLiUtf9hPaFJLZH+Xwd3UpmQiUtWWa3jaFewcdizVK4+JyvotM2C0oLtJb2kepFPqKW7iWP4S2Z1oaHWUbWdbWWempPKCZcoWteO+guYC8dtxGmqBga3l5cS9l45zv45LzkRmvMpivTEFiUyyErKWTrwFFm3qFpJ7uUhdP9qvSGiq9o6mLDaosDX+OoHb1ndoWHKOSzANvDXx7STZyOfbGWly6AGOcbK7tFX9nCirpOmorgkEM/HMbaVbY9JkjudmggP10e5kou7R/pKUjNAVlKYdzcpQMdfNhTpNY4zkRUyhYlNaOqZubfhzApVAwSYGf0uTS1bubHb3bNXVjkiTYi7JKOd1HPdPKwmuJmaGHRT/nBSR9KHy5RTLWQXNhg0gl//ZN1FMxiee7+PWzKMiumMorTUSLsbOSkklf+E4STPJak7ykM0Ofbxps6C8HcQDVkH4p1JCh3JRpgkVdf0UOr5rx7xQ2CF9lE437Rz62ZIkaw0LiHheQNOx0Gwm+MWguoGjn9wZRLypRbi4+PfwoV0q9atXdsJnVkx4SCzHSaEv6sWVFkUnzA0O+AeqUwsomK7hsnsb3HhUrbTehtRTIF+VX3owj8oiKlNGru7i6/bnb/bzJMbAkerkEn+xjID42K5GU1Xo9PtYt0W3LvEtxhAvIpm6PRyeTybA1VcUeL6JnGhb/cXiW/zkSqzvSfopKMOUvKQSIOaVBVlIJ0RRM29aXiyDqNwYzQ1AIjpZqmJxkZEs+j/eJtBcr/g5w6hp3FBgUT1Nt2/DTOCxXvVMYoYLB+KeM7JD6EVXCN7mYco9t27iib5yoXKLB9UvWfJUn8d6/zg+yWGBcCVVUkqIvhwF8qreJ07gaKhhk/R8z2UvKbWjk7MAInyr3h4KvbfPpqQ4rp4XOXYBoOjZWWLiQ7kLXtte85Q2wEmxTWM1/gRWVjWrEIzlcT4xmOVvYnOCgdFvPcwF+QfH8L9IoYraAq4SQmHNXk/lRowIEVfBjQ7XE0XEfXIoKZoRbSJeMpLyngcNrPOU5hxqliVI/Tx7n6GfxVI9B2yYlx7MTC2QIKaEXa0zcMengmjFJ8P7mrxixm4SxQYjXBa4VgOWWf/pmH3RIhodXbiReO4VVxz7ajAINcu18zYiAg0C06wnSlCaxgOOkUu7JOsNkUsKFIZQKpJe0qM8dTUUihZPlNDbBQaKP6CEoT2r0LakY5Pur/xB0Po9SCeQJtdRUEk9WhJMvIyhOLd3nTElCElYnxOhbO6GYo6z6n2FBSQ7ORMyhEhgZk47I2YSzVvCxzIxplAl08yEFXoNLIEbfnCSW0HrK5vCEGtjX4p8V1s+ymXExRO8E7YA6jC39jOIH9UfNoJBBvpPQ+XoiO5p1u79ClyghZCXyRHBRmT6jSehGC2ghtZUSA14ADKQDwYnfmSRmIzlYxr/AjGJKQptEZqBnDgQjwfnuDF6dHDFFgDxHKDiox0T7XGyhgOdIqCH/DYjiKzJK+GuKY2cC4HP7W94Qga1kXgDqZzitBWffiJ2bXBKD8QSFAwBB54evG1iCRWXtEirg5/bVC2Yz2ZaKUrYwOMwIYUJgShAndbmaKY9GTRzdD39ZuIwc5TL88f3thTAZyZFXQe0KfyioxsSPV0OJgeXgCtF+0qnSNk+XhVlYA+YSdvaPB5M+P/GHoiT2q/KAggu1HsYGYucmRyq1OU5CfdKBtaaQlPjqBWMDMZLMA/34fpduT5WF9XoQStCPp4olPgq6Ul/g2dWnzEnEfQ/+T7vJKK85IDn7w1bwIYin5gEjZHA6Ci+qGNjxwLl7V+zmnjYnEdo3vjOBlpNjSx6KwZ5zQVl/DsHBYBQQU4imNIiVCwPnXAn+tDkJP4njF9OwhsqhcciNe5GgBp8hO41DxWqQvECakvrxUJ3nVxscZS323P4lMDMR5AJQEnjQkUITeSPPoSHB5dibBm09EBJ0exSpRAyc1+RnzEk4lfM0robSFGqHFAJMwsIuFfQAVBKGAYmOsHCAGmUTk0y4N+hHXc5Y01jEfdAkSyc0R+BzOpiwIVIBBNRasIMKHSYoVL2EAQNBKKRpOqmEgm4UuLnNkdq/YIIb5/+RJQCiNvxKExM2WYk/ai0EW9ALY6jHmfkIDAShkFC17Ahf4QbOA6uocW0B669zktrEsumMjBOceyeOsEm3VdQxiCIJHuvISuNhIAiEhLSeyMlwbzDaN4j7F/sPOvNYKO7SLEpzUa/Ily223oggI9HEcg/vgFt3WobKwTUEQkJaTxQvSQPnuLUmJb+7Jw/qx/7cMulsUNoYhHWu+k957gai2OMb4PG+lJSm7RS4QOALCWo9ZSpJA+f81EXWb5aCeTy3TJDKGzyA4ZWVY66ETa662se4QRXHEay0ifGt6b1UAkT28F4oqSZaZHjgHOS6dWys2dlUAjpjMFEpm3xgbVvEXYSWNT0yyOwJT37AB+S0NmGwZ+BvYDbEa0AnSfkKur/j4pTbtfyonKS57ONH4yTQxl10nwEmxvnsFZXKnHBDqpDr5xJryVoS2eio7+V9KI0LhIR6gyIvVUNrRPwLv/xH5SQCy4vf/zPgWtN+mShyJkzitnD7+ZRbIX7PCj/qZJr8FRam7ReZMBCEQoKulyKVcBqHquE6/5s9IieZCy0Z89gJP+zw76YyThK+JLn9avyOscFY5SWDKfa6MPqmTzex3jrntjtW6NUJsCMWCAmzBKKDx6km95qUJSZoH/UuEJGqlNXxotNuOtuxMNwWlNcbuu8mW8qs3mnUao3OZqYI+4uEypBXOXfWzxoPF/X64mSp6L4teAoGA0HwfjrcOBP9BB4454JXg1e53G/AiTEkemiyoWuqLr6aKnQG1Hf8L5rsm5alES/cYGLlySOH6rQrtmFZRnxvL7WEgSRI46DWy3JBADFwDsXKafsjcpI21XimYYadpJS+WzKIIYdR8hhWBE/BYCAIhJQ1qYQrEyHqch2wHCy2gFZeKcTdaH6zXB70KSYgx3ucPAUDgSAU0lDgRjHwwLlgitxM42NykmbefQaxOud7/RICPZDWzn5zmDs/XgNPGbbZUC1BULko1SRKyQVvrLk2EyOc59mABq+cOCSfCDlpGKmTtZ3Jq9FgIAiFlNEb5AbOHfHWfLva2v/9ZInzdxAgS6TSuFSYUmJTweFzFg6eFcJAEAoJPjbRXuxwvUHxzryxRgGkOTofdkeFetf90nlay7eTbawyKDL5NwRkQqdqgujm6e+V9OY3YSAIhNTOaPZgUokcsdhykgvfkdieb1RnXjh3c5S5mko7EftjMGwZhmsU0KZZdmta6RMS7XHaFTwFg4Eg7A0iGpMglVAaR3MvY+4ni5x4030L5fkJq8uXk3S+rp668VHWTtHKUHO4WSd2HsVQtFZmPTOhX2Hgy8nVdDR54i8FahSVSyASkZrIKfj/cAd6zuhl2J7gFrN5Y+pkEJ0OkbGGl7MkLuDAgKY1Co1ZP8nazP46T2bZbiW8B8HUvM3BBKkEaUqKxcW9wYQG6pbTdXsEBbd1TheLLMEVGi366RVdEiwNBhNvt1mz1Scm/BVLH+VNyJtdy+KKP9m0rJnjfcrqmBD94EG6qh1BJ3IwTColOQt+L0yQOQSCKxxLhXk2te4s+adnSyfflQI0POxxtidTDb+oRbVb9b26loOZpFn+q0O8V/lPu9GtmwCB4S9OYgypNap6jD9JQz1Nu69B9P94HrT5H/uf0aQwaRUGmQ049/zJ2NLB0o9ndSq3QeRY/GM3N92x5L0ayDgejxaPIaTb8+1wdnra6k42zr9+62sCahANBu9ow/vEfVVsLec6as7mpNtiSz9ZJL4PCpFjXKvDfRlV4x3/a31/Bdgl2ePFugdMxFG1A/IAkmOZYyMHxIDVMTGWdkASZDEdPSAPQBqXY4fDASEgqZQ6NHIABiTHiEbwAUlA5Nj+fPPHxVDscR6QB5CwOaRxewCOeGXv+jsgAuwN5+FcDvABh7kTKOkDKHT+GBG0zP0JB0Ro12Ps/yLzd4P/A601tMj0tfrwAAAAAElFTkSuQmCC;fillColor=#dae8fc;strokeColor=#6c8ebf;" parent="taqw3ctyN8QEC7KTtnxu-2" vertex="1">
          <mxGeometry x="14.64406779661017" y="9.877168141592923" width="74.12261173733766" height="38.4877837617553" as="geometry" />
        </mxCell>
        <mxCell id="XY3Dx2JAYwhzfvwpX6yY-35" value="" style="verticalLabelPosition=bottom;verticalAlign=top;html=1;shape=mxgraph.basic.rounded_frame;dx=10;whiteSpace=wrap;fillColor=#f8cecc;strokeColor=#b85450;" parent="taqw3ctyN8QEC7KTtnxu-2" vertex="1">
          <mxGeometry width="108" height="65.5" as="geometry" />
        </mxCell>
        <mxCell id="iZKfUfsEhRL90h2mDHoB-10" style="edgeStyle=orthogonalEdgeStyle;rounded=0;orthogonalLoop=1;jettySize=auto;html=1;entryX=1;entryY=0.5;entryDx=0;entryDy=0;" edge="1" parent="1" source="XY3Dx2JAYwhzfvwpX6yY-55" target="iZKfUfsEhRL90h2mDHoB-4">
          <mxGeometry relative="1" as="geometry" />
        </mxCell>
        <mxCell id="iZKfUfsEhRL90h2mDHoB-11" style="edgeStyle=orthogonalEdgeStyle;rounded=0;orthogonalLoop=1;jettySize=auto;html=1;exitX=0.5;exitY=1;exitDx=0;exitDy=0;entryX=1;entryY=0.5;entryDx=0;entryDy=0;entryPerimeter=0;" edge="1" parent="1" source="iZKfUfsEhRL90h2mDHoB-6" target="XY3Dx2JAYwhzfvwpX6yY-35">
          <mxGeometry relative="1" as="geometry" />
        </mxCell>
        <mxCell id="XY3Dx2JAYwhzfvwpX6yY-62" value="&lt;b&gt;Analyse de&amp;nbsp;&lt;/b&gt;&lt;div&gt;&lt;b&gt;sentiment&lt;/b&gt;&lt;/div&gt;" style="whiteSpace=wrap;html=1;shape=mxgraph.basic.cloud_rect" parent="1" vertex="1">
          <mxGeometry x="707" y="434" width="120" height="90" as="geometry" />
        </mxCell>
      </root>
    </mxGraphModel>
  </diagram>
</mxfile>
